<svg width="56" height="56" viewBox="0 0 56 56" fill="none" xmlns="http://www.w3.org/2000/svg">
<rect width="56" height="56" rx="28" fill="#F0F3F6"/>
<path d="M28 19C25.8027 19 24 20.8027 24 23C24 25.1973 25.8027 27 28 27C30.1973 27 32 25.1973 32 23C32 20.8027 30.1973 19 28 19ZM28 21C29.1164 21 30 21.8836 30 23C30 24.1164 29.1164 25 28 25C26.8836 25 26 24.1164 26 23C26 21.8836 26.8836 21 28 21ZM28 30C26.255 30 24.1872 30.4098 22.4492 31.0957C21.5802 31.4387 20.7947 31.8461 20.166 32.3691C19.5373 32.8922 19 33.5994 19 34.5V37H37V36V34.5C37 33.5994 36.4627 32.8922 35.834 32.3691C35.2053 31.8461 34.4198 31.4387 33.5508 31.0957C31.8128 30.4098 29.745 30 28 30ZM28 32C29.414 32 31.3461 32.374 32.8184 32.9551C33.5545 33.2456 34.177 33.592 34.5547 33.9062C34.9324 34.2205 35 34.4346 35 34.5V35H21V34.5C21 34.4346 21.0676 34.2205 21.4453 33.9062C21.823 33.592 22.4455 33.2456 23.1816 32.9551C24.6539 32.374 26.586 32 28 32Z" fill="#373737"/>
<path d="M28 21C29.1164 21 30 21.8836 30 23C30 24.1164 29.1164 25 28 25C26.8836 25 26 24.1164 26 23C26 21.8836 26.8836 21 28 21Z" fill="#373737"/>
<path d="M28 32C29.414 32 31.3461 32.374 32.8184 32.9551C33.5545 33.2456 34.177 33.592 34.5547 33.9062C34.9324 34.2205 35 34.4346 35 34.5V35H21V34.5C21 34.4346 21.0676 34.2205 21.4453 33.9062C21.823 33.592 22.4455 33.2456 23.1816 32.9551C24.6539 32.374 26.586 32 28 32Z" fill="#373737"/>
</svg>
