<svg width="24" height="24" viewBox="0 0 24 24" fill="none" xmlns="http://www.w3.org/2000/svg">
<path d="M21.4319 4.26974L8.76559 16.9351C8.68043 17.0206 8.57923 17.0885 8.46779 17.1348C8.35635 17.1811 8.23686 17.2049 8.11619 17.2049C7.99552 17.2049 7.87603 17.1811 7.76459 17.1348C7.65315 17.0885 7.55195 17.0206 7.46679 16.9351L2.56855 12.0323C2.48339 11.9468 2.38218 11.879 2.27074 11.8327C2.1593 11.7864 2.03982 11.7626 1.91914 11.7626C1.79847 11.7626 1.67899 11.7864 1.56755 11.8327C1.45611 11.879 1.3549 11.9468 1.26974 12.0323C1.18425 12.1175 1.11641 12.2187 1.07012 12.3301C1.02383 12.4416 1 12.561 1 12.6817C1 12.8024 1.02383 12.9219 1.07012 13.0333C1.11641 13.1448 1.18425 13.246 1.26974 13.3311L6.16982 18.2303C6.68673 18.7462 7.38723 19.036 8.11757 19.036C8.84791 19.036 9.54841 18.7462 10.0653 18.2303L22.7307 5.56763C22.8161 5.48249 22.8838 5.38134 22.93 5.26998C22.9762 5.15863 23 5.03925 23 4.91869C23 4.79812 22.9762 4.67874 22.93 4.56739C22.8838 4.45603 22.8161 4.35489 22.7307 4.26974C22.6456 4.18425 22.5444 4.11641 22.4329 4.07012C22.3215 4.02383 22.202 4 22.0813 4C21.9606 4 21.8412 4.02383 21.7297 4.07012C21.6183 4.11641 21.5171 4.18425 21.4319 4.26974Z" fill="#03837B"/>
</svg>
