<svg width="25" height="24" viewBox="0 0 25 24" fill="none" xmlns="http://www.w3.org/2000/svg">
<path fill-rule="evenodd" clip-rule="evenodd" d="M23.5 12V11.1C23.5 10.5 23.1 10.1 22.5 10.1C21.9 10.1 21.5 10.5 21.5 11.1V12C21.5 17 17.5 21 12.5 21C7.5 21 3.5 17 3.5 12C3.5 7 7.5 3 12.5 3C13.8 3 15 3.3 16.2 3.8C16.7 4 17.3 3.8 17.5 3.3C17.7 2.8 17.5 2.2 17 2C15.6 1.3 14 1 12.5 1C6.4 1 1.5 5.9 1.5 12C1.5 18.1 6.4 23 12.5 23C18.6 23 23.5 18.1 23.5 12ZM22.8 2.3C23.2 1.9 23.8 1.9 24.2 2.3C24.6 2.7 24.6 3.3 24.2 3.7L13.2 14.7C13 14.9 12.7 15 12.5 15C12.3 15 12 14.9 11.8 14.7L8.8 11.7C8.4 11.3 8.4 10.7 8.8 10.3C9.2 9.9 9.8 9.9 10.2 10.3L12.5 12.6L22.8 2.3Z" fill="#03837B"/>
<mask id="mask0_1372_92007" style="mask-type:alpha" maskUnits="userSpaceOnUse" x="1" y="1" width="24" height="22">
<path fill-rule="evenodd" clip-rule="evenodd" d="M23.5 12V11.1C23.5 10.5 23.1 10.1 22.5 10.1C21.9 10.1 21.5 10.5 21.5 11.1V12C21.5 17 17.5 21 12.5 21C7.5 21 3.5 17 3.5 12C3.5 7 7.5 3 12.5 3C13.8 3 15 3.3 16.2 3.8C16.7 4 17.3 3.8 17.5 3.3C17.7 2.8 17.5 2.2 17 2C15.6 1.3 14 1 12.5 1C6.4 1 1.5 5.9 1.5 12C1.5 18.1 6.4 23 12.5 23C18.6 23 23.5 18.1 23.5 12ZM22.8 2.3C23.2 1.9 23.8 1.9 24.2 2.3C24.6 2.7 24.6 3.3 24.2 3.7L13.2 14.7C13 14.9 12.7 15 12.5 15C12.3 15 12 14.9 11.8 14.7L8.8 11.7C8.4 11.3 8.4 10.7 8.8 10.3C9.2 9.9 9.8 9.9 10.2 10.3L12.5 12.6L22.8 2.3Z" fill="white"/>
</mask>
<g mask="url(#mask0_1372_92007)">
<rect x="0.5" width="24" height="24" fill="#03837B"/>
</g>
</svg>
