<svg width="50" height="50" viewBox="0 0 50 50" fill="none" xmlns="http://www.w3.org/2000/svg">
<g opacity="0.4">
<path d="M7 2V48H43V15.4141L29.4102 2H7ZM9 4H28V17H41V46H9V4ZM30 5.39062L39.7344 15H30V5.39062ZM33.5 21.332C32.457 21.3359 31.6094 22.1562 31.6094 23.168C31.6133 24.1797 32.457 25 33.5 25C34.543 25 35.3867 24.1797 35.3906 23.168C35.3906 22.1562 34.543 21.3359 33.5 21.332ZM21.168 24C20.8359 23.9883 20.5195 24.1367 20.3242 24.4062L12.8633 34.4883C12.6406 34.793 12.6055 35.1953 12.7734 35.5312C12.9453 35.8711 13.2891 36.082 13.668 36.082H28.4258C28.4492 36.082 28.4727 36.082 28.4961 36.082C28.5 36.082 28.5 36.082 28.5039 36.082L35.0156 36C35.3984 35.9961 35.7422 35.7695 35.9062 35.4219C36.0664 35.0742 36.0156 34.668 35.7773 34.3711L29.2695 26.3867C29.0781 26.1484 28.7852 26.0117 28.4805 26.0156C28.1641 26.0234 27.8711 26.1758 27.6875 26.4297L25.5547 29.3633L21.9375 24.4102C21.7539 24.1641 21.4727 24.0117 21.168 24ZM21.125 26.6875L24.7539 31.6602C24.7578 31.668 24.7617 31.6719 24.7656 31.6758L26.5234 34.082H15.6523L21.125 26.6875ZM28.5391 28.6562L32.918 34.0273L29 34.0781L26.7969 31.0625L28.5391 28.6562Z" fill="black"/>
</g>
</svg>
