<svg width="325" height="48" viewBox="0 0 325 48" fill="none" xmlns="http://www.w3.org/2000/svg">
<path fill-rule="evenodd" clip-rule="evenodd" d="M8 0.917969C3.58172 0.917969 0 4.49969 0 8.91797V39.9384C0 44.3567 3.58172 47.9384 8 47.9384H38.3714C42.7897 47.9384 46.3714 44.3567 46.3714 39.9384V8.91797C46.3714 4.49969 42.7897 0.917969 38.3714 0.917969H8ZM15.6691 9.33938C15.7513 9.28389 15.8444 9.24687 15.9401 9.22894C16.0358 9.211 16.1341 9.21184 16.2306 9.23446C16.4248 9.27899 16.591 9.40231 16.6892 9.57406C16.7433 9.66807 18.0004 11.9026 17.2646 14.0096C16.5827 15.9626 14.3239 17.2153 13.7525 17.5092C13.5685 17.8373 13.4078 18.1778 13.2703 18.5308C14.1785 17.7661 15.1627 17.3256 15.7817 17.0523C16.0015 16.9554 16.2557 16.9753 16.4585 17.1061C16.6606 17.2362 16.7823 17.4594 16.7823 17.6983V17.6993C16.7823 18.7701 16.7823 20.2362 15.7914 21.7377C14.8928 23.0993 13.3903 23.6775 12.5392 23.9092C12.5735 24.6555 12.6739 25.3803 12.838 26.0808C13.1366 25.4131 13.6029 24.7918 14.257 24.2309C14.5317 23.9948 14.943 24.0043 15.2077 24.2502C15.2724 24.3103 16.7823 25.7393 16.7823 28.2358C16.7823 29.3439 16.1523 30.4033 15.4731 31.1541C15.4993 31.1832 15.5242 31.2136 15.5491 31.244C15.5795 31.2811 15.6099 31.3182 15.6427 31.3529C16.056 31.7905 16.6209 32.2429 17.2451 32.6948C16.863 31.5729 16.7886 30.5442 16.7837 30.4666C16.7709 30.2574 16.8503 30.0531 17.0033 29.9089C17.1563 29.7647 17.3674 29.6972 17.5759 29.7198C17.6812 29.7318 20.1509 30.0325 21.6161 31.6221C22.8091 32.9161 22.483 34.9158 22.2318 35.8741C22.5848 36.1076 22.9017 36.3382 23.1866 36.5685C23.4712 36.3384 23.7873 36.1073 24.14 35.8741C23.889 34.9159 23.564 32.9161 24.757 31.6221C26.2222 30.0325 28.6926 29.7318 28.7972 29.7198C29.0043 29.6972 29.2154 29.7647 29.3684 29.9089C29.5214 30.0538 29.6029 30.2574 29.5894 30.4666C29.5845 30.5438 29.5116 31.5727 29.1196 32.7017C29.7475 32.2476 30.3151 31.7926 30.7304 31.3529C30.7632 31.3182 30.7936 31.2811 30.824 31.244C30.8489 31.2136 30.8738 31.1832 30.9 31.1541C30.2208 30.4027 29.5908 29.3432 29.5908 28.2358C29.5908 25.7393 31.1 24.3103 31.1641 24.2502C31.4281 24.0043 31.8393 23.9941 32.1147 24.2309C32.769 24.7921 33.2352 25.4142 33.5337 26.0822C33.698 25.3811 33.7995 24.656 33.8339 23.9092C32.9828 23.6775 31.4817 23.0993 30.5831 21.7377C29.5912 20.2357 29.5908 18.7692 29.5908 17.6983C29.5908 17.4594 29.7125 17.2355 29.9146 17.1061C30.1167 16.9753 30.3709 16.9561 30.5915 17.0536C31.211 17.327 32.1948 17.7674 33.1028 18.5322C32.9652 18.1787 32.8048 17.8376 32.6206 17.5092C32.0492 17.2157 29.7905 15.9626 29.1085 14.0096C28.3728 11.9026 29.6298 9.66807 29.6839 9.57406C29.7821 9.40231 29.9476 9.27899 30.1412 9.23446C30.3326 9.18851 30.5383 9.22841 30.7026 9.33938C30.8314 9.42632 33.8603 11.5103 33.8603 14.421V16.819C33.9717 17.0174 34.0813 17.2166 34.1772 17.4209C34.7407 15.3151 35.8898 14.3652 35.9547 14.3147C36.112 14.1924 36.3164 14.1414 36.5107 14.1753C36.7085 14.2078 36.882 14.3205 36.9901 14.4873C37.6903 15.5631 38.3282 17.5029 38.0742 19.2155C37.8775 20.5419 36.8783 21.658 35.264 22.4017C35.2771 22.7172 35.2835 23.0339 35.2835 23.3529C35.2835 23.3636 35.2828 23.374 35.2821 23.3845C35.2814 23.3946 35.2807 23.4047 35.2807 23.415C36.6959 22.3505 38.5867 21.9744 38.7079 21.9517C38.93 21.91 39.1655 21.977 39.332 22.1339C39.4985 22.2908 39.578 22.5172 39.546 22.7427C39.5303 22.8608 39.1304 25.6497 38.0061 27.286C37.1849 28.4812 35.9946 28.8252 35.0055 28.8252C34.6826 28.8252 34.3983 28.782 34.1396 28.7258C33.9527 29.1468 33.7451 29.5544 33.517 29.949C33.9553 29.8091 34.4001 29.7143 34.8345 29.7143C36.2926 29.7143 37.7024 30.4755 37.7615 30.5081C38.0831 30.6841 38.2173 31.0724 38.0728 31.4068C38.0152 31.5397 36.6302 34.662 33.813 34.662C32.132 34.662 31.0068 33.9956 30.4066 33.512C29.8817 33.9165 29.3234 34.3073 28.743 34.6813C31.4702 34.8555 32.8776 36.2205 32.9402 36.2827C33.0911 36.4326 33.1652 36.6415 33.1445 36.8529C33.1239 37.0628 33.009 37.2532 32.8318 37.3706C32.7372 37.4328 30.4917 38.9029 28.1676 38.9029C26.4611 38.9029 25.4711 37.8168 24.9738 37.0337C24.7126 37.2052 24.4638 37.3728 24.2595 37.5224C25.1052 38.3489 25.6495 39.198 25.9856 40.0625C26.0192 40.1492 26.0353 40.2416 26.0329 40.3344C26.0306 40.4272 26.0098 40.5187 25.9719 40.6036C25.9339 40.6884 25.8795 40.765 25.8118 40.829C25.744 40.893 25.6643 40.9431 25.577 40.9764C25.4898 41.0098 25.3968 41.0258 25.3033 41.0234C25.2099 41.0211 25.1178 41.0005 25.0324 40.9628C24.9469 40.9251 24.8698 40.8711 24.8054 40.8038C24.741 40.7365 24.6906 40.6572 24.657 40.5706C24.3707 39.8343 23.9449 39.1592 23.1866 38.446C22.4282 39.1592 22.0024 39.8343 21.7161 40.5706C21.6826 40.6572 21.6321 40.7365 21.5677 40.8038C21.5033 40.8711 21.4262 40.9251 21.3407 40.9628C21.1682 41.0389 20.9723 41.0438 20.7961 40.9764C20.7088 40.9431 20.6291 40.893 20.5613 40.829C20.4936 40.765 20.4392 40.6884 20.4012 40.6036C20.3633 40.5187 20.3425 40.4272 20.3402 40.3344C20.3378 40.2416 20.3539 40.1492 20.3875 40.0625C20.7236 39.198 21.268 38.3489 22.1136 37.5224C21.9091 37.3726 21.6595 37.2055 21.3979 37.0337C20.9018 37.8168 19.912 38.9029 18.2055 38.9029C15.8815 38.9029 13.6359 37.4328 13.5413 37.3706C13.3641 37.2532 13.2492 37.0635 13.2286 36.8529C13.2079 36.6415 13.282 36.4326 13.4329 36.2827C13.4955 36.2205 14.9029 34.8555 17.6301 34.6813C17.0497 34.3073 16.4914 33.9165 15.9665 33.512C15.3662 33.9956 14.2407 34.662 12.5601 34.662C9.74292 34.662 8.35795 31.5397 8.30031 31.4068C8.15586 31.0724 8.2907 30.6841 8.61163 30.5081C8.67069 30.4755 10.0805 29.7143 11.5386 29.7143C11.9734 29.7143 12.4188 29.8095 12.8575 29.9503C12.629 29.5553 12.4207 29.1474 12.2335 28.7258C11.9749 28.7821 11.6912 28.8252 11.3676 28.8252C10.3785 28.8252 9.18819 28.4812 8.36702 27.286C7.24272 25.6497 6.84277 22.8608 6.82711 22.7427C6.79509 22.5172 6.87535 22.2908 7.04114 22.1339C7.20694 21.977 7.44176 21.91 7.66378 21.9517C7.78455 21.9744 9.67685 22.351 11.0924 23.4164C11.0924 23.4059 11.0917 23.3956 11.091 23.3853C11.0904 23.3745 11.0897 23.3638 11.0897 23.3529C11.0897 23.0334 11.0974 22.7163 11.1105 22.4003C9.48374 21.6437 8.49632 20.5336 8.30031 19.2155C8.04556 17.5036 8.68349 15.5638 9.38297 14.4873C9.49113 14.3205 9.66396 14.2071 9.86107 14.1739C10.0539 14.14 10.2604 14.1924 10.4184 14.3147C10.4833 14.3652 11.6325 15.3148 12.1959 17.4209C12.2918 17.2166 12.4014 17.0174 12.5128 16.819V14.421C12.5128 11.5103 15.541 9.42632 15.6691 9.33938Z" fill="#03837B"/>
<path d="M61.1568 38.4038L66.9984 44.5669H65.4451L59.9074 38.7634V44.5669H58.7256V32.5832H59.9074V38.0615L65.2763 32.5832H66.8295L61.1568 38.4038Z" fill="#03837B"/>
<path d="M74.666 43.4883C73.7993 44.3443 72.7526 44.7723 71.5257 44.7723C70.2764 44.7723 69.224 44.3443 68.3686 43.4883C67.5131 42.621 67.0854 41.5538 67.0854 40.287C67.0854 39.0201 67.5131 37.9587 68.3686 37.1028C69.224 36.2354 70.2764 35.8017 71.5257 35.8017C72.7638 35.8017 73.8106 36.2354 74.666 37.1028C75.5327 37.9587 75.966 39.0201 75.966 40.287C75.966 41.5424 75.5327 42.6095 74.666 43.4883ZM69.1621 42.7008C69.8036 43.3514 70.5915 43.6767 71.5257 43.6767C72.4599 43.6767 73.2478 43.3514 73.8894 42.7008C74.5309 42.0275 74.8517 41.2229 74.8517 40.287C74.8517 39.3397 74.5309 38.5408 73.8894 37.8903C73.2478 37.2283 72.4599 36.8973 71.5257 36.8973C70.5915 36.8973 69.8036 37.2283 69.1621 37.8903C68.5205 38.5408 68.1997 39.3397 68.1997 40.287C68.1997 41.2229 68.5205 42.0275 69.1621 42.7008Z" fill="#03837B"/>
<path d="M78.3789 36.0071H84.4231V44.5669H83.3088V37.1028H79.4932V40.9204C79.4932 42.347 79.223 43.3286 78.6828 43.865C78.1537 44.4014 77.4221 44.6354 76.4879 44.5669V43.5055C77.1408 43.5739 77.6191 43.4142 77.923 43.0261C78.2269 42.6381 78.3789 41.9362 78.3789 40.9204V36.0071Z" fill="#03837B"/>
<path d="M87.6613 36.0071H93.7055V44.5669H92.5912V37.1028H88.7756V40.9204C88.7756 42.347 88.5055 43.3286 87.9652 43.865C87.4362 44.4014 86.7046 44.6354 85.7704 44.5669V43.5055C86.4232 43.5739 86.9016 43.4142 87.2055 43.0261C87.5094 42.6381 87.6613 41.9362 87.6613 40.9204V36.0071Z" fill="#03837B"/>
<path d="M99.9659 35.8017C101.227 35.8017 102.234 36.2525 102.988 37.1541C103.765 38.0443 104.153 39.1 104.153 40.3212C104.153 40.3783 104.142 40.5552 104.119 40.8519H96.7075C96.82 41.7079 97.1802 42.3927 97.788 42.9063C98.3958 43.4199 99.1555 43.6767 100.067 43.6767C101.35 43.6767 102.256 43.1916 102.785 42.2215L103.765 42.8036C103.393 43.4199 102.881 43.9049 102.228 44.2587C101.587 44.6011 100.861 44.7723 100.05 44.7723C98.7222 44.7723 97.6417 44.35 96.8088 43.5055C95.9758 42.6609 95.5594 41.5881 95.5594 40.287C95.5594 38.9973 95.9702 37.9302 96.7919 37.0856C97.6135 36.2297 98.6715 35.8017 99.9659 35.8017ZM99.9659 36.8973C99.088 36.8973 98.3508 37.1598 97.7542 37.6848C97.1689 38.2098 96.82 38.9003 96.7075 39.7563H103.005C102.881 38.8432 102.538 38.1413 101.975 37.6506C101.39 37.1484 100.72 36.8973 99.9659 36.8973Z" fill="#03837B"/>
<path d="M108.222 40.1158L112.746 44.5669H111.261L107.04 40.4411V44.5669H105.925V36.0071H107.04V39.7905L111.058 36.0071H112.577L108.222 40.1158Z" fill="#03837B"/>
<path d="M113.255 36.0071H120.346V37.1028H117.358V44.5669H116.243V37.1028H113.255V36.0071Z" fill="#03837B"/>
<path d="M122.818 42.5981L127.85 36.0071H128.795V44.5669H127.681V37.9759L122.649 44.5669H121.704V36.0071H122.818V42.5981Z" fill="#03837B"/>
<path d="M136.52 40.1672C137.443 40.5095 137.905 41.1772 137.905 42.1701C137.905 42.8777 137.668 43.4541 137.196 43.8992C136.734 44.3443 136.087 44.5669 135.254 44.5669H131.151V36.0071H134.916C135.727 36.0071 136.357 36.2183 136.807 36.6405C137.269 37.0628 137.499 37.6163 137.499 38.3011C137.499 39.1571 137.173 39.7791 136.52 40.1672ZM134.916 37.1028H132.266V39.7049H134.916C135.896 39.7049 136.385 39.2598 136.385 38.3696C136.385 37.9702 136.256 37.662 135.997 37.4452C135.749 37.2169 135.389 37.1028 134.916 37.1028ZM132.266 43.4712H135.254C135.749 43.4712 136.126 43.3514 136.385 43.1117C136.655 42.872 136.79 42.5354 136.79 42.1017C136.79 41.6908 136.655 41.3712 136.385 41.143C136.126 40.9147 135.749 40.8006 135.254 40.8006H132.266V43.4712Z" fill="#03837B"/>
<path d="M145.57 39.7392V36.0071H146.684V44.5669H145.57V40.8348H140.707V44.5669H139.593V36.0071H140.707V39.7392H145.57Z" fill="#03837B"/>
<path d="M150.155 39.2598H152.468C153.244 39.2598 153.908 39.5109 154.46 40.0131C155.011 40.5038 155.287 41.1373 155.287 41.9133C155.287 42.7008 155.011 43.34 154.46 43.8307C153.931 44.3215 153.267 44.5669 152.468 44.5669H149.04V36.0071H150.155V39.2598ZM156.469 44.5669V36.0071H157.583V44.5669H156.469ZM150.155 43.4712H152.468C152.952 43.4712 153.357 43.3286 153.683 43.0432C154.01 42.7465 154.173 42.3699 154.173 41.9133C154.173 41.4568 154.01 41.0859 153.683 40.8006C153.357 40.5038 152.952 40.3555 152.468 40.3555H150.155V43.4712Z" fill="#03837B"/>
<path d="M165.695 34.6376H161.306V33.6446H165.695V34.6376ZM161.069 42.5981L166.101 36.0071H167.046V44.5669H165.932V37.9759L160.901 44.5669H159.955V36.0071H161.069V42.5981Z" fill="#03837B"/>
<path d="M178.148 35.8017C179.352 35.8017 180.377 36.2354 181.221 37.1028C182.076 37.9702 182.504 39.0316 182.504 40.287C182.504 41.5424 182.076 42.6038 181.221 43.4712C180.377 44.3386 179.352 44.7723 178.148 44.7723C176.651 44.7723 175.514 44.1446 174.738 42.8892V47.9908H173.623V36.0071H174.738V37.6848C175.514 36.4294 176.651 35.8017 178.148 35.8017ZM175.7 42.7008C176.341 43.3514 177.129 43.6767 178.064 43.6767C178.998 43.6767 179.786 43.3514 180.427 42.7008C181.069 42.0275 181.39 41.2229 181.39 40.287C181.39 39.3397 181.069 38.5408 180.427 37.8903C179.786 37.2283 178.998 36.8973 178.064 36.8973C177.129 36.8973 176.341 37.2283 175.7 37.8903C175.058 38.5408 174.738 39.3397 174.738 40.287C174.738 41.2229 175.058 42.0275 175.7 42.7008Z" fill="#03837B"/>
<path d="M191.616 37.6848V36.0071H192.731V44.5669H191.616V42.8892C190.84 44.1446 189.703 44.7723 188.206 44.7723C187.002 44.7723 185.972 44.3386 185.116 43.4712C184.272 42.6038 183.85 41.5424 183.85 40.287C183.85 39.0316 184.272 37.9702 185.116 37.1028C185.972 36.2354 187.002 35.8017 188.206 35.8017C189.703 35.8017 190.84 36.4294 191.616 37.6848ZM185.927 42.7008C186.568 43.3514 187.356 43.6767 188.29 43.6767C189.225 43.6767 190.013 43.3514 190.654 42.7008C191.296 42.0275 191.616 41.2229 191.616 40.287C191.616 39.3397 191.296 38.5408 190.654 37.8903C190.013 37.2283 189.225 36.8973 188.29 36.8973C187.356 36.8973 186.568 37.2283 185.927 37.8903C185.285 38.5408 184.964 39.3397 184.964 40.287C184.964 41.2229 185.285 42.0275 185.927 42.7008Z" fill="#03837B"/>
<path d="M199.446 40.1672C200.425 40.5438 200.915 41.2286 200.915 42.2215C200.915 42.9405 200.639 43.5454 200.087 44.0362C199.558 44.5269 198.782 44.7723 197.758 44.7723C196.047 44.7723 194.932 44.0875 194.415 42.718L195.36 42.153C195.72 43.1688 196.519 43.6767 197.758 43.6767C198.399 43.6767 198.9 43.5397 199.26 43.2658C199.62 42.9805 199.8 42.6095 199.8 42.153C199.8 41.7422 199.654 41.4169 199.361 41.1772C199.069 40.9261 198.675 40.8006 198.18 40.8006H196.947V39.7049H197.842C198.326 39.7049 198.703 39.5851 198.973 39.3454C199.255 39.0943 199.395 38.7519 199.395 38.3182C199.395 37.9074 199.226 37.5707 198.889 37.3082C198.562 37.0343 198.129 36.8973 197.589 36.8973C196.542 36.8973 195.839 37.3253 195.478 38.1813L194.55 37.6335C195.113 36.4123 196.126 35.8017 197.589 35.8017C198.489 35.8017 199.198 36.0414 199.716 36.5207C200.245 36.9886 200.51 37.565 200.51 38.2498C200.51 39.1286 200.155 39.7677 199.446 40.1672Z" fill="#03837B"/>
<path d="M205.621 43.1802L208.357 36.0071H209.538L205.925 45.3544C205.588 46.2218 205.115 46.8894 204.507 47.3574C203.911 47.8367 203.247 48.0478 202.515 47.9908V46.9294C203.528 47.0549 204.299 46.4614 204.828 45.1489L205.047 44.6182L201.266 36.0071H202.447L205.621 43.1802Z" fill="#03837B"/>
<path d="M217.875 36.0071H219.158V44.5669H218.044V37.7362L215.089 42.5981H214.954L211.999 37.7362V44.5669H210.885V36.0071H212.168L215.021 40.6979L217.875 36.0071Z" fill="#03837B"/>
<path d="M225.74 36.0071H232.831V44.5669H231.717V37.1028H226.855V44.5669H225.74V36.0071Z" fill="#03837B"/>
<path d="M242.262 43.4883C241.395 44.3443 240.348 44.7723 239.121 44.7723C237.872 44.7723 236.82 44.3443 235.964 43.4883C235.109 42.621 234.681 41.5538 234.681 40.287C234.681 39.0201 235.109 37.9587 235.964 37.1028C236.82 36.2354 237.872 35.8017 239.121 35.8017C240.36 35.8017 241.406 36.2354 242.262 37.1028C243.128 37.9587 243.562 39.0201 243.562 40.287C243.562 41.5424 243.128 42.6095 242.262 43.4883ZM236.758 42.7008C237.399 43.3514 238.187 43.6767 239.121 43.6767C240.056 43.6767 240.844 43.3514 241.485 42.7008C242.127 42.0275 242.448 41.2229 242.448 40.287C242.448 39.3397 242.127 38.5408 241.485 37.8903C240.844 37.2283 240.056 36.8973 239.121 36.8973C238.187 36.8973 237.399 37.2283 236.758 37.8903C236.116 38.5408 235.796 39.3397 235.796 40.287C235.796 41.2229 236.116 42.0275 236.758 42.7008Z" fill="#03837B"/>
<path d="M244.084 36.0071H251.175V37.1028H248.186V44.5669H247.072V37.1028H244.084V36.0071Z" fill="#03837B"/>
<path d="M257.057 35.8017C258.262 35.8017 259.286 36.2354 260.13 37.1028C260.985 37.9702 261.413 39.0316 261.413 40.287C261.413 41.5424 260.985 42.6038 260.13 43.4712C259.286 44.3386 258.262 44.7723 257.057 44.7723C255.56 44.7723 254.424 44.1446 253.647 42.8892V47.9908H252.533V36.0071H253.647V37.6848C254.424 36.4294 255.56 35.8017 257.057 35.8017ZM254.609 42.7008C255.251 43.3514 256.039 43.6767 256.973 43.6767C257.907 43.6767 258.695 43.3514 259.337 42.7008C259.978 42.0275 260.299 41.2229 260.299 40.287C260.299 39.3397 259.978 38.5408 259.337 37.8903C258.695 37.2283 257.907 36.8973 256.973 36.8973C256.039 36.8973 255.251 37.2283 254.609 37.8903C253.968 38.5408 253.647 39.3397 253.647 40.287C253.647 41.2229 253.968 42.0275 254.609 42.7008Z" fill="#03837B"/>
<path d="M267.166 35.8017C268.427 35.8017 269.434 36.2525 270.188 37.1541C270.965 38.0443 271.353 39.1 271.353 40.3212C271.353 40.3783 271.342 40.5552 271.319 40.8519H263.908C264.02 41.7079 264.38 42.3927 264.988 42.9063C265.596 43.4199 266.356 43.6767 267.267 43.6767C268.55 43.6767 269.457 43.1916 269.986 42.2215L270.965 42.8036C270.593 43.4199 270.081 43.9049 269.428 44.2587C268.787 44.6011 268.061 44.7723 267.25 44.7723C265.922 44.7723 264.842 44.35 264.009 43.5055C263.176 42.6609 262.759 41.5881 262.759 40.287C262.759 38.9973 263.17 37.9302 263.992 37.0856C264.814 36.2297 265.872 35.8017 267.166 35.8017ZM267.166 36.8973C266.288 36.8973 265.551 37.1598 264.954 37.6848C264.369 38.2098 264.02 38.9003 263.908 39.7563H270.205C270.081 38.8432 269.738 38.1413 269.175 37.6506C268.59 37.1484 267.92 36.8973 267.166 36.8973Z" fill="#03837B"/>
<path d="M276.874 44.7723C275.669 44.7723 274.656 44.3671 273.835 43.5568C273.024 42.7351 272.619 41.6737 272.619 40.3726C272.619 38.9117 272.833 37.7933 273.261 37.0172C273.688 36.2297 274.555 35.5164 275.861 34.8772C276.277 34.6832 276.603 34.5348 276.84 34.4321C277.234 34.2723 277.543 34.1354 277.768 34.0212C278.748 33.5647 279.243 32.9998 279.254 32.3264L280.132 32.84C280.076 33.1253 279.986 33.3821 279.862 33.6104C279.716 33.8615 279.569 34.0612 279.423 34.2096C279.288 34.3579 279.074 34.5177 278.781 34.6889C278.59 34.803 278.359 34.9286 278.089 35.0655L277.245 35.425L276.452 35.7674C275.675 36.1098 275.095 36.4693 274.713 36.846C274.341 37.2112 274.077 37.6905 273.919 38.284C274.279 37.7933 274.752 37.4223 275.337 37.1712C275.923 36.9087 276.513 36.7775 277.11 36.7775C278.236 36.7775 279.164 37.1541 279.896 37.9074C280.639 38.6492 281.01 39.6022 281.01 40.7663C281.01 41.9191 280.616 42.8777 279.828 43.6424C279.052 44.3957 278.067 44.7723 276.874 44.7723ZM274.679 42.8036C275.264 43.3628 275.996 43.6424 276.874 43.6424C277.752 43.6424 278.472 43.3742 279.035 42.8378C279.609 42.29 279.896 41.5995 279.896 40.7663C279.896 39.9218 279.626 39.2313 279.085 38.6949C278.556 38.1471 277.847 37.8731 276.958 37.8731C276.159 37.8731 275.433 38.1299 274.78 38.6435C274.127 39.1343 273.801 39.8076 273.801 40.6636C273.801 41.531 274.093 42.2443 274.679 42.8036Z" fill="#03837B"/>
<path d="M283.819 42.5981L288.85 36.0071H289.796V44.5669H288.681V37.9759L283.65 44.5669H282.705V36.0071H283.819V42.5981Z" fill="#03837B"/>
<path d="M291.139 36.0071H298.23V37.1028H295.242V44.5669H294.127V37.1028H291.139V36.0071Z" fill="#03837B"/>
<path d="M303.158 35.8017C304.419 35.8017 305.426 36.2525 306.18 37.1541C306.957 38.0443 307.345 39.1 307.345 40.3212C307.345 40.3783 307.334 40.5552 307.312 40.8519H299.9C300.012 41.7079 300.373 42.3927 300.98 42.9063C301.588 43.4199 302.348 43.6767 303.26 43.6767C304.543 43.6767 305.449 43.1916 305.978 42.2215L306.957 42.8036C306.586 43.4199 306.073 43.9049 305.421 44.2587C304.779 44.6011 304.053 44.7723 303.243 44.7723C301.915 44.7723 300.834 44.35 300.001 43.5055C299.168 42.6609 298.752 41.5881 298.752 40.287C298.752 38.9973 299.163 37.9302 299.984 37.0856C300.806 36.2297 301.864 35.8017 303.158 35.8017ZM303.158 36.8973C302.28 36.8973 301.543 37.1598 300.947 37.6848C300.361 38.2098 300.012 38.9003 299.9 39.7563H306.197C306.073 38.8432 305.73 38.1413 305.167 37.6506C304.582 37.1484 303.912 36.8973 303.158 36.8973Z" fill="#03837B"/>
<path d="M309.666 36.0071H315.71V44.5669H314.596V37.1028H310.78V40.9204C310.78 42.347 310.51 43.3286 309.97 43.865C309.441 44.4014 308.709 44.6354 307.775 44.5669V43.5055C308.428 43.5739 308.906 43.4142 309.21 43.0261C309.514 42.6381 309.666 41.9362 309.666 40.9204V36.0071Z" fill="#03837B"/>
<path d="M320.721 36.0071H324.148V44.5669H323.034V41.2799H321.582L318.982 44.5669H317.564L320.232 41.2457C319.545 41.143 318.982 40.8576 318.543 40.3897C318.116 39.9104 317.902 39.334 317.902 38.6606C317.902 37.896 318.172 37.2625 318.712 36.7604C319.275 36.2582 319.945 36.0071 320.721 36.0071ZM320.721 40.2185H323.034V37.1028H320.721C320.237 37.1028 319.832 37.2511 319.506 37.5479C319.179 37.8332 319.016 38.2041 319.016 38.6606C319.016 39.1172 319.179 39.4938 319.506 39.7905C319.832 40.0759 320.237 40.2185 320.721 40.2185Z" fill="#03837B"/>
<path d="M69.4781 28.4082C66.1674 28.4082 63.4155 27.2856 61.2224 25.0404C59.0504 22.8166 57.9644 20.0475 57.9644 16.7332C57.9644 13.3975 59.0504 10.6285 61.2224 8.42608C63.4155 6.18091 66.1674 5.05832 69.4781 5.05832C71.4814 5.05832 73.3266 5.53943 75.0136 6.50165C76.7217 7.44248 78.0502 8.72544 78.9991 10.3505L75.235 12.5636C74.6867 11.5586 73.9065 10.7782 72.8943 10.2222C71.8821 9.64489 70.7434 9.35623 69.4781 9.35623C67.3272 9.35623 65.5875 10.0405 64.259 11.409C62.9516 12.7988 62.2978 14.5736 62.2978 16.7332C62.2978 18.8715 62.9516 20.6356 64.259 22.0254C65.5875 23.3939 67.3272 24.0782 69.4781 24.0782C70.7434 24.0782 71.8821 23.8002 72.8943 23.2442C73.9276 22.6669 74.7078 21.8865 75.235 20.9029L78.9991 23.116C78.0502 24.741 76.7217 26.0347 75.0136 26.9969C73.3266 27.9377 71.4814 28.4082 69.4781 28.4082Z" fill="#03837B"/>
<path d="M85.8184 11.9221V14.6805C86.1769 13.6755 86.7884 12.9164 87.653 12.4033C88.5176 11.8687 89.5087 11.6014 90.6264 11.6014V16.2201C89.3822 16.049 88.2646 16.3056 87.2734 16.9898C86.3034 17.6527 85.8184 18.7539 85.8184 20.2934V27.9591H81.738V11.9221H85.8184Z" fill="#03837B"/>
<path d="M105.901 25.9705C104.298 27.5956 102.316 28.4082 99.9541 28.4082C97.5923 28.4082 95.6101 27.5956 94.0074 25.9705C92.4048 24.3455 91.6035 22.3355 91.6035 19.9406C91.6035 17.5672 92.4048 15.5679 94.0074 13.9428C95.6312 12.2963 97.6134 11.4731 99.9541 11.4731C102.295 11.4731 104.277 12.2963 105.901 13.9428C107.525 15.5893 108.336 17.5885 108.336 19.9406C108.336 22.3141 107.525 24.3241 105.901 25.9705ZM96.8859 23.116C97.7083 23.9499 98.731 24.3668 99.9541 24.3668C101.177 24.3668 102.2 23.9499 103.022 23.116C103.845 22.282 104.256 21.2236 104.256 19.9406C104.256 18.6577 103.845 17.5992 103.022 16.7653C102.2 15.9314 101.177 15.5144 99.9541 15.5144C98.731 15.5144 97.7083 15.9314 96.8859 16.7653C96.0846 17.6206 95.6839 18.6791 95.6839 19.9406C95.6839 21.2022 96.0846 22.2606 96.8859 23.116Z" fill="#03837B"/>
<path d="M125.709 21.8009L128.398 11.9221H132.731L127.702 27.9591H123.811L120.901 18.2407L117.991 27.9591H114.1L109.071 11.9221H113.404L116.093 21.7688L118.971 11.9221H122.83L125.709 21.8009Z" fill="#03837B"/>
<path d="M146.301 13.8145V5.50735H150.381V27.9591H146.301V26.0668C145.099 27.6277 143.391 28.4082 141.177 28.4082C139.047 28.4082 137.223 27.5956 135.704 25.9705C134.207 24.3241 133.459 22.3141 133.459 19.9406C133.459 17.5885 134.207 15.5893 135.704 13.9428C137.223 12.2963 139.047 11.4731 141.177 11.4731C143.391 11.4731 145.099 12.2536 146.301 13.8145ZM138.773 23.2122C139.637 24.0461 140.692 24.4631 141.936 24.4631C143.201 24.4631 144.245 24.0461 145.067 23.2122C145.89 22.3569 146.301 21.2664 146.301 19.9406C146.301 18.6149 145.89 17.5351 145.067 16.7012C144.245 15.8459 143.201 15.4182 141.936 15.4182C140.67 15.4182 139.616 15.8459 138.773 16.7012C137.95 17.5351 137.539 18.6149 137.539 19.9406C137.539 21.2664 137.95 22.3569 138.773 23.2122Z" fill="#03837B"/>
<path d="M171.479 5.50735H175.97V27.9591H171.637V13.3975L165.405 23.8216H164.899L158.668 13.4296V27.9591H154.303V5.50735H158.794L165.152 16.1238L171.479 5.50735Z" fill="#03837B"/>
<path d="M181.93 9.99771C181.256 9.99771 180.665 9.75181 180.159 9.26001C179.674 8.74682 179.432 8.14811 179.432 7.46386C179.432 6.77962 179.674 6.18091 180.159 5.66772C180.665 5.15454 181.256 4.89795 181.93 4.89795C182.626 4.89795 183.217 5.15454 183.702 5.66772C184.208 6.18091 184.461 6.77962 184.461 7.46386C184.461 8.14811 184.208 8.74682 183.702 9.26001C183.217 9.75181 182.626 9.99771 181.93 9.99771ZM183.987 27.9591H179.906V11.9221H183.987V27.9591Z" fill="#03837B"/>
<path d="M196.515 11.4731C198.265 11.4731 199.688 12.0611 200.785 13.2372C201.924 14.4346 202.493 16.0597 202.493 18.1124V27.9591H198.413V18.6256C198.413 17.5779 198.128 16.7653 197.559 16.188C197.01 15.6106 196.251 15.322 195.281 15.322C194.206 15.322 193.352 15.6641 192.719 16.3483C192.107 17.0112 191.802 17.9948 191.802 19.2992V27.9591H187.721V11.9221H191.802V13.7183C192.772 12.2215 194.343 11.4731 196.515 11.4731Z" fill="#03837B"/>
<path d="M217.965 13.8145V5.50735H222.046V27.9591H217.965V26.0668C216.763 27.6277 215.055 28.4082 212.841 28.4082C210.711 28.4082 208.887 27.5956 207.369 25.9705C205.872 24.3241 205.123 22.3141 205.123 19.9406C205.123 17.5885 205.872 15.5893 207.369 13.9428C208.887 12.2963 210.711 11.4731 212.841 11.4731C215.055 11.4731 216.763 12.2536 217.965 13.8145ZM210.437 23.2122C211.302 24.0461 212.356 24.4631 213.6 24.4631C214.866 24.4631 215.909 24.0461 216.732 23.2122C217.554 22.3569 217.965 21.2664 217.965 19.9406C217.965 18.6149 217.554 17.5351 216.732 16.7012C215.909 15.8459 214.866 15.4182 213.6 15.4182C212.335 15.4182 211.281 15.8459 210.437 16.7012C209.615 17.5351 209.204 18.6149 209.204 19.9406C209.204 21.2664 209.615 22.3569 210.437 23.2122Z" fill="#03837B"/>
</svg>
