<svg width="73" height="32" viewBox="0 0 73 32" fill="none" xmlns="http://www.w3.org/2000/svg">
<path d="M8.26266 3.09416C8.67265 1.56401 10.0593 0.5 11.6434 0.5H67.7871C70.0885 0.5 71.7635 2.68291 71.1679 4.90584L64.7373 28.9058C64.3273 30.436 62.9407 31.5 61.3566 31.5H5.21285C2.91152 31.5 1.2365 29.3171 1.83211 27.0942L8.26266 3.09416Z" fill="url(#paint0_linear_1678_85795)" stroke="url(#paint1_linear_1678_85795)"/>
<path d="M22.288 7.36C23.968 7.36 25.304 7.936 26.296 9.088C27.288 10.224 27.656 11.688 27.4 13.48C27.16 15.176 26.416 16.544 25.168 17.584C23.936 18.608 22.344 19.12 20.392 19.12H18.184L17.296 24.16H13L15.952 7.36H22.288ZM23.128 13.24C23.24 12.696 23.152 12.264 22.864 11.944C22.576 11.624 22.144 11.464 21.568 11.464H19.528L18.904 15.04H20.992C21.552 15.04 22.024 14.88 22.408 14.56C22.792 14.224 23.032 13.784 23.128 13.24Z" fill="white"/>
<path d="M41.9151 13.408C41.7231 14.48 41.3071 15.416 40.6671 16.216C40.0431 17.016 39.2431 17.632 38.2671 18.064L40.5711 24.16H36.2511L34.2831 18.736H32.4591L31.4991 24.16H27.2031L30.1791 7.36H36.7551C38.4191 7.36 39.7711 7.952 40.8111 9.136C41.8511 10.32 42.2191 11.744 41.9151 13.408ZM33.7551 11.32L33.0831 15.088H35.5551C36.0831 15.104 36.5311 14.936 36.8991 14.584C37.2831 14.232 37.5231 13.776 37.6191 13.216C37.7151 12.656 37.6191 12.2 37.3311 11.848C37.0591 11.496 36.6351 11.32 36.0591 11.32H33.7551Z" fill="white"/>
<path d="M50.2276 24.52C48.5316 24.52 47.0516 24.096 45.7876 23.248C44.5236 22.4 43.6276 21.288 43.0996 19.912C42.5716 18.536 42.4436 17.064 42.7156 15.496C43.1316 13.096 44.2596 11.08 46.0996 9.448C47.9396 7.816 50.1716 7 52.7956 7C55.3396 7 57.3156 7.896 58.7236 9.688C60.1476 11.464 60.6596 13.56 60.2596 15.976C59.8436 18.408 58.7236 20.44 56.8996 22.072C55.0916 23.704 52.8676 24.52 50.2276 24.52ZM47.6356 19.048C48.3236 19.896 49.3156 20.32 50.6116 20.32C51.9076 20.32 53.0676 19.896 54.0916 19.048C55.1316 18.184 55.7636 17.088 55.9876 15.76C56.2276 14.432 55.9956 13.344 55.2916 12.496C54.5876 11.632 53.5876 11.2 52.2916 11.2C50.9956 11.2 49.8436 11.632 48.8356 12.496C47.8436 13.344 47.2276 14.432 46.9876 15.76C46.7476 17.104 46.9636 18.2 47.6356 19.048Z" fill="white"/>
<defs>
<linearGradient id="paint0_linear_1678_85795" x1="59.3607" y1="-2.37037" x2="4.69365" y2="31.1117" gradientUnits="userSpaceOnUse">
<stop stop-color="#03837B"/>
<stop offset="1" stop-color="#27BBB2"/>
</linearGradient>
<linearGradient id="paint1_linear_1678_85795" x1="-29.5" y1="-26.5" x2="73.5819" y2="28.4075" gradientUnits="userSpaceOnUse">
<stop stop-color="#03837B"/>
<stop offset="1" stop-color="#24B7AE"/>
</linearGradient>
</defs>
</svg>
