<svg width="24" height="24" viewBox="0 0 24 24" fill="none" xmlns="http://www.w3.org/2000/svg">
<g clip-path="url(#clip0_2159_92369)">
<path d="M16 22C17.105 22 18 21.105 18 20L18 4C18 2.895 17.105 2 16 2L8 2C6.895 2 6 2.895 6 4L6 9L8 9L8 4L16 4L16 20L8 20L8 15L6 15L6 20C6 21.105 6.895 22 8 22L16 22ZM4 16L4 13L13 13L13 11L4 11L4 8L8.74228e-07 12L4 16Z" fill="#EA5455"/>
</g>
<defs>
<clipPath id="clip0_2159_92369">
<rect width="24" height="24" fill="white" transform="translate(24 24) rotate(-180)"/>
</clipPath>
</defs>
</svg>
