<svg width="24" height="24" viewBox="0 0 24 24" fill="none" xmlns="http://www.w3.org/2000/svg">
<path d="M6 2C4.897 2 4 2.897 4 4V20C4 21.103 4.897 22 6 22H12.2598C11.8378 21.396 11.5099 20.723 11.2949 20H6V4H13V9H18V11C18.695 11 19.366 11.1059 20 11.2949V8L14 2H6ZM18 13C15.2 13 13 15.2 13 18C13 20.8 15.2 23 18 23C19 23 20.0008 22.6992 20.8008 22.1992L22.5996 24L24 22.5996L22.1992 20.8008C22.6992 20.0008 23 19 23 18C23 15.2 20.8 13 18 13ZM18 15C19.7 15 21 16.3 21 18C21 19.7 19.7 21 18 21C16.3 21 15 19.7 15 18C15 16.3 16.3 15 18 15Z" fill="#080108"/>
</svg>
