<svg width="198" height="34" viewBox="0 0 198 34" fill="none" xmlns="http://www.w3.org/2000/svg">
<path fill-rule="evenodd" clip-rule="evenodd" d="M8 0C3.58172 0 0 3.58172 0 8V26C0 30.4183 3.58172 34 8 34H26C30.4183 34 34 30.4183 34 26V8C34 3.58172 30.4183 0 26 0H8ZM11.4885 6.08943C11.5487 6.04931 11.617 6.02254 11.6872 6.00957C11.7574 5.9966 11.8295 5.99721 11.9002 6.01356C12.0426 6.04576 12.1644 6.13493 12.2365 6.25913C12.2761 6.3271 13.1978 7.94287 12.6583 9.46644C12.1583 10.8786 10.5022 11.7844 10.0833 11.997C9.94832 12.2342 9.8305 12.4804 9.72966 12.7356C10.3956 12.1827 11.1172 11.8642 11.571 11.6665C11.7322 11.5965 11.9186 11.6109 12.0673 11.7055C12.2155 11.7995 12.3047 11.961 12.3047 12.1337V12.1344C12.3047 12.9087 12.3047 13.9688 11.5782 15.0545C10.9193 16.0391 9.81765 16.4572 9.19365 16.6248C9.21881 17.1643 9.29242 17.6884 9.41274 18.195C9.63162 17.7122 9.97358 17.263 10.4532 16.8573C10.6546 16.6866 10.9561 16.6935 11.1502 16.8713C11.1977 16.9148 12.3047 17.948 12.3047 19.7532C12.3047 20.5545 11.8428 21.3206 11.3448 21.8635C11.364 21.8845 11.3823 21.9065 11.4005 21.9284C11.4228 21.9553 11.4451 21.9821 11.4691 22.0072C11.7722 22.3236 12.1864 22.6507 12.6441 22.9775C12.3639 22.1663 12.3093 21.4224 12.3057 21.3664C12.2964 21.2151 12.3546 21.0673 12.4667 20.9631C12.5789 20.8588 12.7337 20.81 12.8866 20.8263C12.9638 20.835 14.7746 21.0524 15.8489 22.2019C16.7236 23.1376 16.4845 24.5835 16.3003 25.2764C16.5592 25.4452 16.7915 25.612 17.0004 25.7785C17.2091 25.6122 17.4408 25.4451 17.6994 25.2764C17.5154 24.5836 17.2771 23.1376 18.1519 22.2019C19.2261 21.0524 21.0375 20.835 21.1142 20.8263C21.266 20.81 21.4208 20.8588 21.533 20.9631C21.6452 21.0678 21.7049 21.2151 21.695 21.3664C21.6914 21.4221 21.638 22.1661 21.3506 22.9825C21.811 22.6541 22.2271 22.3251 22.5316 22.0072C22.5557 21.9821 22.578 21.9553 22.6003 21.9284C22.6185 21.9065 22.6367 21.8845 22.6559 21.8635C22.158 21.3201 21.696 20.554 21.696 19.7532C21.696 17.948 22.8026 16.9148 22.8496 16.8713C23.0431 16.6935 23.3447 16.6861 23.5466 16.8573C24.0264 17.2631 24.3681 17.7129 24.587 18.196C24.7075 17.6891 24.7819 17.1648 24.8071 16.6248C24.1831 16.4572 23.0825 16.0391 22.4236 15.0545C21.6963 13.9685 21.696 12.908 21.696 12.1337C21.696 11.961 21.7853 11.799 21.9335 11.7055C22.0816 11.6109 22.268 11.597 22.4297 11.6675C22.884 11.8652 23.6053 12.1837 24.2711 12.7366C24.1702 12.4811 24.0526 12.2344 23.9175 11.997C23.4985 11.7847 21.8424 10.8786 21.3424 9.46644C20.8029 7.94287 21.7247 6.3271 21.7643 6.25913C21.8363 6.13493 21.9576 6.04576 22.0996 6.01356C22.2399 5.98034 22.3907 6.00918 22.5112 6.08943C22.6057 6.15229 24.8265 7.65923 24.8265 9.76391V11.4978C24.9082 11.6414 24.9885 11.7854 25.0588 11.9331C25.472 10.4104 26.3146 9.72353 26.3621 9.68705C26.4774 9.59863 26.6273 9.5617 26.7697 9.58623C26.9148 9.60974 27.042 9.69121 27.1213 9.81183C27.6347 10.5897 28.1024 11.9924 27.9161 13.2308C27.7719 14.1899 27.0393 14.9969 25.8557 15.5347C25.8653 15.7628 25.8699 15.9918 25.8699 16.2225C25.8699 16.2302 25.8694 16.2378 25.8689 16.2453C25.8684 16.2526 25.8679 16.26 25.8679 16.2674C26.9056 15.4977 28.292 15.2257 28.3808 15.2093C28.5436 15.1791 28.7163 15.2276 28.8384 15.341C28.9604 15.4545 29.0188 15.6182 28.9953 15.7812C28.9838 15.8666 28.6906 17.8832 27.8662 19.0664C27.2641 19.9307 26.3914 20.1795 25.6661 20.1795C25.4294 20.1795 25.2209 20.1482 25.0313 20.1076C24.8942 20.412 24.742 20.7067 24.5748 20.992C24.8961 20.8908 25.2223 20.8223 25.5408 20.8223C26.6098 20.8223 27.6436 21.3728 27.6869 21.3963C27.9227 21.5236 28.021 21.8044 27.9151 22.0461C27.8729 22.1422 26.8574 24.4 24.7918 24.4C23.5592 24.4 22.7343 23.9181 22.2942 23.5684C21.9093 23.8609 21.5 24.1435 21.0744 24.4139C23.0741 24.5399 24.106 25.5269 24.1519 25.5719C24.2625 25.6802 24.3168 25.8313 24.3017 25.9842C24.2865 26.136 24.2023 26.2737 24.0724 26.3585C24.003 26.4035 22.3566 27.4665 20.6526 27.4665C19.4013 27.4665 18.6754 26.6812 18.3108 26.1149C18.1193 26.2389 17.9369 26.3601 17.7871 26.4683C18.4071 27.0659 18.8062 27.6799 19.0527 28.3051C19.0773 28.3677 19.0891 28.4345 19.0874 28.5016C19.0856 28.5688 19.0704 28.6349 19.0426 28.6962C19.0148 28.7576 18.9749 28.813 18.9252 28.8593C18.8756 28.9055 18.8171 28.9418 18.7531 28.9659C18.6891 28.99 18.6209 29.0015 18.5524 28.9998C18.4839 28.9982 18.4164 28.9833 18.3538 28.956C18.2911 28.9288 18.2346 28.8897 18.1873 28.841C18.1401 28.7924 18.1031 28.7351 18.0785 28.6724C17.8686 28.14 17.5564 27.6519 17.0004 27.1361C16.4443 27.6519 16.1321 28.14 15.9223 28.6724C15.8976 28.7351 15.8606 28.7924 15.8134 28.841C15.7662 28.8897 15.7096 28.9288 15.647 28.956C15.5205 29.011 15.3768 29.0146 15.2477 28.9659C15.1837 28.9418 15.1252 28.9055 15.0755 28.8593C15.0259 28.813 14.986 28.7576 14.9582 28.6962C14.9303 28.6349 14.9151 28.5688 14.9134 28.5016C14.9117 28.4345 14.9234 28.3677 14.9481 28.3051C15.1945 27.6799 15.5936 27.0659 16.2137 26.4683C16.0637 26.36 15.8807 26.2391 15.6889 26.1149C15.3251 26.6812 14.5995 27.4665 13.3482 27.4665C11.6442 27.4665 9.99776 26.4035 9.92836 26.3585C9.79845 26.2737 9.71422 26.1365 9.69909 25.9842C9.68396 25.8313 9.73827 25.6802 9.84888 25.5719C9.8948 25.5269 10.9267 24.5399 12.9263 24.4139C12.5008 24.1435 12.0914 23.8609 11.7066 23.5684C11.2664 23.9181 10.4412 24.4 9.20894 24.4C7.14337 24.4 6.12789 22.1422 6.08563 22.0461C5.97972 21.8044 6.07859 21.5236 6.3139 21.3963C6.3572 21.3728 7.39091 20.8223 8.45996 20.8223C8.77877 20.8223 9.10533 20.8912 9.42701 20.993C9.25946 20.7074 9.10674 20.4124 8.96947 20.1076C8.77985 20.1483 8.57188 20.1795 8.33462 20.1795C7.6094 20.1795 6.73663 19.9307 6.13455 19.0664C5.3102 17.8832 5.01695 15.8666 5.00547 15.7812C4.98199 15.6182 5.04083 15.4545 5.1624 15.341C5.28397 15.2276 5.45614 15.1791 5.61892 15.2093C5.70748 15.2257 7.09493 15.498 8.13285 16.2684C8.13281 16.2608 8.13232 16.2533 8.13183 16.2459C8.13132 16.2381 8.13081 16.2304 8.13081 16.2225C8.13081 15.9915 8.13649 15.7621 8.1461 15.5337C6.95334 14.9866 6.22935 14.1839 6.08563 13.2308C5.89885 11.9929 6.36658 10.5902 6.87945 9.81183C6.95876 9.69121 7.08547 9.60925 7.23 9.58523C7.37139 9.5607 7.5228 9.59863 7.63862 9.68705C7.6862 9.72353 8.52882 10.4102 8.94195 11.9331C9.01223 11.7854 9.09257 11.6414 9.17429 11.4978V9.76391C9.17429 7.65923 11.3946 6.15229 11.4885 6.08943Z" fill="#03837B"/>
<path d="M44.2037 27.4898L47.605 31.0287H46.7006L43.4762 27.6962V31.0287H42.7881V24.1475H43.4762V27.2932L46.6023 24.1475H47.5067L44.2037 27.4898Z" fill="#03837B"/>
<path d="M52.0695 30.4094C51.5648 30.9009 50.9554 31.1467 50.241 31.1467C49.5136 31.1467 48.9008 30.9009 48.4028 30.4094C47.9047 29.9113 47.6556 29.2986 47.6556 28.5711C47.6556 27.8437 47.9047 27.2342 48.4028 26.7427C48.9008 26.2446 49.5136 25.9956 50.241 25.9956C50.9619 25.9956 51.5714 26.2446 52.0695 26.7427C52.5741 27.2342 52.8264 27.8437 52.8264 28.5711C52.8264 29.292 52.5741 29.9048 52.0695 30.4094ZM48.8648 29.9572C49.2383 30.3307 49.6971 30.5175 50.241 30.5175C50.785 30.5175 51.2437 30.3307 51.6173 29.9572C51.9908 29.5705 52.1776 29.1085 52.1776 28.5711C52.1776 28.0272 51.9908 27.5684 51.6173 27.1949C51.2437 26.8148 50.785 26.6247 50.241 26.6247C49.6971 26.6247 49.2383 26.8148 48.8648 27.1949C48.4912 27.5684 48.3044 28.0272 48.3044 28.5711C48.3044 29.1085 48.4912 29.5705 48.8648 29.9572Z" fill="#03837B"/>
<path d="M54.2313 26.1135H57.7506V31.0287H57.1018V26.7427H54.8801V28.9348C54.8801 29.754 54.7228 30.3176 54.4083 30.6257C54.1002 30.9337 53.6743 31.068 53.1303 31.0287V30.4192C53.5104 30.4585 53.7889 30.3668 53.9659 30.144C54.1428 29.9211 54.2313 29.5181 54.2313 28.9348V26.1135Z" fill="#03837B"/>
<path d="M59.6361 26.1135H63.1553V31.0287H62.5065V26.7427H60.2849V28.9348C60.2849 29.754 60.1276 30.3176 59.813 30.6257C59.505 30.9337 59.079 31.068 58.5351 31.0287V30.4192C58.9152 30.4585 59.1937 30.3668 59.3707 30.144C59.5476 29.9211 59.6361 29.5181 59.6361 28.9348V26.1135Z" fill="#03837B"/>
<path d="M66.8005 25.9956C67.5345 25.9956 68.121 26.2544 68.5601 26.7722C69.0123 27.2833 69.2384 27.8895 69.2384 28.5908C69.2384 28.6235 69.2319 28.7251 69.2188 28.8955H64.9032C64.9688 29.387 65.1785 29.7802 65.5324 30.0752C65.8863 30.3701 66.3286 30.5175 66.8595 30.5175C67.6066 30.5175 68.1341 30.239 68.4422 29.6819L69.0123 30.0162C68.796 30.3701 68.4979 30.6486 68.1178 30.8518C67.7442 31.0484 67.3215 31.1467 66.8496 31.1467C66.0763 31.1467 65.4472 30.9042 64.9622 30.4192C64.4772 29.9343 64.2348 29.3182 64.2348 28.5711C64.2348 27.8306 64.474 27.2178 64.9524 26.7328C65.4308 26.2413 66.0468 25.9956 66.8005 25.9956ZM66.8005 26.6247C66.2893 26.6247 65.86 26.7754 65.5127 27.0769C65.1719 27.3784 64.9688 27.7749 64.9032 28.2664H68.5699C68.4979 27.7421 68.298 27.339 67.9703 27.0572C67.6295 26.7689 67.2396 26.6247 66.8005 26.6247Z" fill="#03837B"/>
<path d="M71.6074 28.4728L74.2419 31.0287H73.3768L70.9192 28.6596V31.0287H70.2704V26.1135H70.9192V28.286L73.2589 26.1135H74.1436L71.6074 28.4728Z" fill="#03837B"/>
<path d="M74.5382 26.1135H78.6669V26.7427H76.927V31.0287H76.2782V26.7427H74.5382V26.1135Z" fill="#03837B"/>
<path d="M80.1064 29.8982L83.0358 26.1135H83.5863V31.0287H82.9375V27.244L80.0081 31.0287H79.4576V26.1135H80.1064V29.8982Z" fill="#03837B"/>
<path d="M88.0844 28.5023C88.6218 28.6989 88.8905 29.0823 88.8905 29.6525C88.8905 30.0588 88.7529 30.3897 88.4776 30.6453C88.2089 30.9009 87.8321 31.0287 87.3471 31.0287H84.9584V26.1135H87.1505C87.6224 26.1135 87.9894 26.2348 88.2515 26.4772C88.5202 26.7197 88.6546 27.0376 88.6546 27.4308C88.6546 27.9223 88.4645 28.2795 88.0844 28.5023ZM87.1505 26.7427H85.6072V28.2369H87.1505C87.7207 28.2369 88.0058 27.9813 88.0058 27.4701C88.0058 27.2407 87.9304 27.0638 87.7797 26.9393C87.6355 26.8082 87.4258 26.7427 87.1505 26.7427ZM85.6072 30.3996H87.3471C87.6355 30.3996 87.855 30.3307 88.0058 30.1931C88.1631 30.0555 88.2417 29.8622 88.2417 29.6131C88.2417 29.3772 88.1631 29.1937 88.0058 29.0626C87.855 28.9316 87.6355 28.866 87.3471 28.866H85.6072V30.3996Z" fill="#03837B"/>
<path d="M93.3535 28.2565V26.1135H94.0023V31.0287H93.3535V28.8857H90.5223V31.0287H89.8735V26.1135H90.5223V28.2565H93.3535Z" fill="#03837B"/>
<path d="M96.0231 27.9813H97.3699C97.8221 27.9813 98.2087 28.1255 98.5299 28.4138C98.851 28.6956 99.0115 29.0594 99.0115 29.505C99.0115 29.9572 98.851 30.3242 98.5299 30.606C98.2218 30.8878 97.8352 31.0287 97.3699 31.0287H95.3743V26.1135H96.0231V27.9813ZM99.6997 31.0287V26.1135H100.348V31.0287H99.6997ZM96.0231 30.3996H97.3699C97.6517 30.3996 97.8876 30.3176 98.0777 30.1538C98.2677 29.9834 98.3627 29.7671 98.3627 29.505C98.3627 29.2429 98.2677 29.0299 98.0777 28.866C97.8876 28.6956 97.6517 28.6104 97.3699 28.6104H96.0231V30.3996Z" fill="#03837B"/>
<path d="M105.072 25.3271H102.516V24.7569H105.072V25.3271ZM102.378 29.8982L105.308 26.1135H105.858V31.0287H105.209V27.244L102.28 31.0287H101.729V26.1135H102.378V29.8982Z" fill="#03837B"/>
<path d="M112.322 25.9956C113.024 25.9956 113.62 26.2446 114.112 26.7427C114.61 27.2407 114.859 27.8502 114.859 28.5711C114.859 29.292 114.61 29.9015 114.112 30.3996C113.62 30.8976 113.024 31.1467 112.322 31.1467C111.451 31.1467 110.789 30.7862 110.337 30.0653V32.9948H109.688V26.1135H110.337V27.0769C110.789 26.356 111.451 25.9956 112.322 25.9956ZM110.897 29.9572C111.271 30.3307 111.729 30.5175 112.273 30.5175C112.817 30.5175 113.276 30.3307 113.649 29.9572C114.023 29.5705 114.21 29.1085 114.21 28.5711C114.21 28.0272 114.023 27.5684 113.649 27.1949C113.276 26.8148 112.817 26.6247 112.273 26.6247C111.729 26.6247 111.271 26.8148 110.897 27.1949C110.523 27.5684 110.337 28.0272 110.337 28.5711C110.337 29.1085 110.523 29.5705 110.897 29.9572Z" fill="#03837B"/>
<path d="M120.164 27.0769V26.1135H120.813V31.0287H120.164V30.0653C119.712 30.7862 119.05 31.1467 118.179 31.1467C117.478 31.1467 116.878 30.8976 116.38 30.3996C115.888 29.9015 115.643 29.292 115.643 28.5711C115.643 27.8502 115.888 27.2407 116.38 26.7427C116.878 26.2446 117.478 25.9956 118.179 25.9956C119.05 25.9956 119.712 26.356 120.164 27.0769ZM116.852 29.9572C117.225 30.3307 117.684 30.5175 118.228 30.5175C118.772 30.5175 119.231 30.3307 119.604 29.9572C119.978 29.5705 120.164 29.1085 120.164 28.5711C120.164 28.0272 119.978 27.5684 119.604 27.1949C119.231 26.8148 118.772 26.6247 118.228 26.6247C117.684 26.6247 117.225 26.8148 116.852 27.1949C116.478 27.5684 116.291 28.0272 116.291 28.5711C116.291 29.1085 116.478 29.5705 116.852 29.9572Z" fill="#03837B"/>
<path d="M124.723 28.5023C125.293 28.7186 125.578 29.1118 125.578 29.6819C125.578 30.0948 125.418 30.4422 125.097 30.724C124.789 31.0058 124.337 31.1467 123.74 31.1467C122.744 31.1467 122.095 30.7535 121.794 29.967L122.344 29.6426C122.554 30.2259 123.019 30.5175 123.74 30.5175C124.114 30.5175 124.405 30.4389 124.615 30.2816C124.825 30.1178 124.93 29.9048 124.93 29.6426C124.93 29.4067 124.844 29.2199 124.674 29.0823C124.504 28.9381 124.274 28.866 123.986 28.866H123.268V28.2369H123.789C124.071 28.2369 124.291 28.1681 124.448 28.0304C124.612 27.8863 124.694 27.6897 124.694 27.4406C124.694 27.2047 124.595 27.0114 124.399 26.8606C124.209 26.7033 123.956 26.6247 123.642 26.6247C123.032 26.6247 122.623 26.8705 122.413 27.362L121.872 27.0474C122.2 26.3462 122.79 25.9956 123.642 25.9956C124.166 25.9956 124.579 26.1332 124.88 26.4084C125.189 26.6771 125.343 27.0081 125.343 27.4013C125.343 27.9059 125.136 28.2729 124.723 28.5023Z" fill="#03837B"/>
<path d="M128.319 30.2324L129.911 26.1135H130.6L128.496 31.4809C128.299 31.979 128.024 32.3624 127.67 32.631C127.323 32.9063 126.936 33.0275 126.51 32.9948V32.3853C127.1 32.4574 127.549 32.1166 127.857 31.3629L127.985 31.0582L125.783 26.1135H126.471L128.319 30.2324Z" fill="#03837B"/>
<path d="M135.453 26.1135H136.201V31.0287H135.552V27.1064L133.831 29.8982H133.753L132.033 27.1064V31.0287H131.384V26.1135H132.131L133.792 28.807L135.453 26.1135Z" fill="#03837B"/>
<path d="M140.033 26.1135H144.162V31.0287H143.513V26.7427H140.682V31.0287H140.033V26.1135Z" fill="#03837B"/>
<path d="M149.653 30.4094C149.148 30.9009 148.539 31.1467 147.825 31.1467C147.097 31.1467 146.484 30.9009 145.986 30.4094C145.488 29.9113 145.239 29.2986 145.239 28.5711C145.239 27.8437 145.488 27.2342 145.986 26.7427C146.484 26.2446 147.097 25.9956 147.825 25.9956C148.545 25.9956 149.155 26.2446 149.653 26.7427C150.158 27.2342 150.41 27.8437 150.41 28.5711C150.41 29.292 150.158 29.9048 149.653 30.4094ZM146.448 29.9572C146.822 30.3307 147.281 30.5175 147.825 30.5175C148.368 30.5175 148.827 30.3307 149.201 29.9572C149.574 29.5705 149.761 29.1085 149.761 28.5711C149.761 28.0272 149.574 27.5684 149.201 27.1949C148.827 26.8148 148.368 26.6247 147.825 26.6247C147.281 26.6247 146.822 26.8148 146.448 27.1949C146.075 27.5684 145.888 28.0272 145.888 28.5711C145.888 29.1085 146.075 29.5705 146.448 29.9572Z" fill="#03837B"/>
<path d="M150.714 26.1135H154.843V26.7427H153.103V31.0287H152.454V26.7427H150.714V26.1135Z" fill="#03837B"/>
<path d="M158.268 25.9956C158.969 25.9956 159.565 26.2446 160.057 26.7427C160.555 27.2407 160.804 27.8502 160.804 28.5711C160.804 29.292 160.555 29.9015 160.057 30.3996C159.565 30.8976 158.969 31.1467 158.268 31.1467C157.396 31.1467 156.734 30.7862 156.282 30.0653V32.9948H155.633V26.1135H156.282V27.0769C156.734 26.356 157.396 25.9956 158.268 25.9956ZM156.842 29.9572C157.216 30.3307 157.675 30.5175 158.219 30.5175C158.763 30.5175 159.221 30.3307 159.595 29.9572C159.968 29.5705 160.155 29.1085 160.155 28.5711C160.155 28.0272 159.968 27.5684 159.595 27.1949C159.221 26.8148 158.763 26.6247 158.219 26.6247C157.675 26.6247 157.216 26.8148 156.842 27.1949C156.469 27.5684 156.282 28.0272 156.282 28.5711C156.282 29.1085 156.469 29.5705 156.842 29.9572Z" fill="#03837B"/>
<path d="M164.154 25.9956C164.888 25.9956 165.474 26.2544 165.913 26.7722C166.365 27.2833 166.592 27.8895 166.592 28.5908C166.592 28.6235 166.585 28.7251 166.572 28.8955H162.256C162.322 29.387 162.532 29.7802 162.885 30.0752C163.239 30.3701 163.682 30.5175 164.213 30.5175C164.96 30.5175 165.487 30.239 165.795 29.6819L166.365 30.0162C166.149 30.3701 165.851 30.6486 165.471 30.8518C165.097 31.0484 164.675 31.1467 164.203 31.1467C163.429 31.1467 162.8 30.9042 162.315 30.4192C161.83 29.9343 161.588 29.3182 161.588 28.5711C161.588 27.8306 161.827 27.2178 162.305 26.7328C162.784 26.2413 163.4 25.9956 164.154 25.9956ZM164.154 26.6247C163.642 26.6247 163.213 26.7754 162.866 27.0769C162.525 27.3784 162.322 27.7749 162.256 28.2664H165.923C165.851 27.7421 165.651 27.339 165.323 27.0572C164.983 26.7689 164.593 26.6247 164.154 26.6247Z" fill="#03837B"/>
<path d="M169.806 31.1467C169.105 31.1467 168.515 30.914 168.036 30.4487C167.565 29.9769 167.329 29.3674 167.329 28.6203C167.329 27.7814 167.453 27.1392 167.702 26.6935C167.951 26.2413 168.456 25.8317 169.216 25.4647C169.459 25.3533 169.649 25.2681 169.786 25.2091C170.016 25.1174 170.196 25.0387 170.327 24.9732C170.897 24.7111 171.185 24.3867 171.192 24L171.703 24.2949C171.67 24.4587 171.618 24.6062 171.546 24.7373C171.461 24.8815 171.375 24.9961 171.29 25.0813C171.212 25.1665 171.087 25.2583 170.917 25.3566C170.805 25.4221 170.671 25.4942 170.514 25.5729L170.022 25.7793L169.56 25.9759C169.108 26.1725 168.77 26.3789 168.548 26.5952C168.331 26.8049 168.177 27.0802 168.086 27.421C168.295 27.1392 168.571 26.9262 168.911 26.782C169.252 26.6313 169.596 26.5559 169.944 26.5559C170.599 26.5559 171.14 26.7722 171.566 27.2047C171.998 27.6307 172.214 28.1779 172.214 28.8464C172.214 29.5083 171.985 30.0588 171.526 30.4979C171.074 30.9304 170.501 31.1467 169.806 31.1467ZM168.528 30.0162C168.869 30.3373 169.295 30.4979 169.806 30.4979C170.317 30.4979 170.736 30.3439 171.064 30.0358C171.398 29.7213 171.566 29.3248 171.566 28.8464C171.566 28.3614 171.408 27.9649 171.094 27.6569C170.786 27.3423 170.373 27.185 169.855 27.185C169.39 27.185 168.967 27.3325 168.587 27.6274C168.207 27.9092 168.017 28.2959 168.017 28.7874C168.017 29.2855 168.187 29.6951 168.528 30.0162Z" fill="#03837B"/>
<path d="M173.85 29.8982L176.779 26.1135H177.33V31.0287H176.681V27.244L173.752 31.0287H173.201V26.1135H173.85V29.8982Z" fill="#03837B"/>
<path d="M178.112 26.1135H182.241V26.7427H180.501V31.0287H179.852V26.7427H178.112V26.1135Z" fill="#03837B"/>
<path d="M185.11 25.9956C185.844 25.9956 186.431 26.2544 186.87 26.7722C187.322 27.2833 187.548 27.8895 187.548 28.5908C187.548 28.6235 187.542 28.7251 187.529 28.8955H183.213C183.279 29.387 183.488 29.7802 183.842 30.0752C184.196 30.3701 184.638 30.5175 185.169 30.5175C185.916 30.5175 186.444 30.239 186.752 29.6819L187.322 30.0162C187.106 30.3701 186.808 30.6486 186.428 30.8518C186.054 31.0484 185.631 31.1467 185.159 31.1467C184.386 31.1467 183.757 30.9042 183.272 30.4192C182.787 29.9343 182.545 29.3182 182.545 28.5711C182.545 27.8306 182.784 27.2178 183.262 26.7328C183.741 26.2413 184.357 25.9956 185.11 25.9956ZM185.11 26.6247C184.599 26.6247 184.17 26.7754 183.823 27.0769C183.482 27.3784 183.279 27.7749 183.213 28.2664H186.88C186.808 27.7421 186.608 27.339 186.28 27.0572C185.939 26.7689 185.549 26.6247 185.11 26.6247Z" fill="#03837B"/>
<path d="M188.899 26.1135H192.419V31.0287H191.77V26.7427H189.548V28.9348C189.548 29.754 189.391 30.3176 189.076 30.6257C188.768 30.9337 188.342 31.068 187.798 31.0287V30.4192C188.179 30.4585 188.457 30.3668 188.634 30.144C188.811 29.9211 188.899 29.5181 188.899 28.9348V26.1135Z" fill="#03837B"/>
<path d="M195.336 26.1135H197.332V31.0287H196.683V29.1413H195.838L194.324 31.0287H193.498L195.051 29.1216C194.652 29.0626 194.324 28.8988 194.068 28.6301C193.819 28.3548 193.695 28.0239 193.695 27.6372C193.695 27.1981 193.852 26.8344 194.167 26.5461C194.494 26.2577 194.884 26.1135 195.336 26.1135ZM195.336 28.5318H196.683V26.7427H195.336C195.055 26.7427 194.819 26.8279 194.629 26.9983C194.439 27.1621 194.344 27.3751 194.344 27.6372C194.344 27.8994 194.439 28.1156 194.629 28.286C194.819 28.4499 195.055 28.5318 195.336 28.5318Z" fill="#03837B"/>
<path d="M49.9454 20C47.6608 20 45.7617 19.236 44.2483 17.708C42.7494 16.1946 42 14.3101 42 12.0546C42 9.78445 42.7494 7.89995 44.2483 6.40109C45.7617 4.87312 47.6608 4.10914 49.9454 4.10914C51.3279 4.10914 52.6012 4.43656 53.7653 5.09141C54.9441 5.7317 55.8608 6.60482 56.5157 7.71078L53.9181 9.21692C53.5398 8.53297 53.0014 8.00182 52.3029 7.62347C51.6044 7.23056 50.8186 7.03411 49.9454 7.03411C48.4611 7.03411 47.2606 7.49977 46.3438 8.43111C45.4416 9.37699 44.9904 10.5848 44.9904 12.0546C44.9904 13.5098 45.4416 14.7103 46.3438 15.6562C47.2606 16.5875 48.4611 17.0532 49.9454 17.0532C50.8186 17.0532 51.6044 16.864 52.3029 16.4857C53.0159 16.0928 53.5543 15.5616 53.9181 14.8922L56.5157 16.3984C55.8608 17.5043 54.9441 18.3847 53.7653 19.0396C52.6012 19.6799 51.3279 20 49.9454 20Z" fill="#03837B"/>
<path d="M61.2215 8.78036V10.6576C61.4689 9.97362 61.8909 9.45703 62.4875 9.10778C63.0842 8.74397 63.7681 8.56207 64.5394 8.56207V11.7053C63.6808 11.5889 62.9096 11.7635 62.2256 12.2292C61.5562 12.6803 61.2215 13.4297 61.2215 14.4775V19.6944H58.4057V8.78036H61.2215Z" fill="#03837B"/>
<path d="M75.08 18.3411C73.974 19.447 72.6061 20 70.9763 20C69.3465 20 67.9786 19.447 66.8726 18.3411C65.7667 17.2351 65.2137 15.8672 65.2137 14.2374C65.2137 12.6221 65.7667 11.2615 66.8726 10.1555C67.9931 9.03502 69.361 8.47476 70.9763 8.47476C72.5916 8.47476 73.9595 9.03502 75.08 10.1555C76.2005 11.276 76.7607 12.6367 76.7607 14.2374C76.7607 15.8527 76.2005 17.2206 75.08 18.3411ZM68.859 16.3984C69.4265 16.9659 70.1323 17.2497 70.9763 17.2497C71.8203 17.2497 72.5261 16.9659 73.0936 16.3984C73.6611 15.8308 73.9449 15.1105 73.9449 14.2374C73.9449 13.3643 73.6611 12.6439 73.0936 12.0764C72.5261 11.5089 71.8203 11.2251 70.9763 11.2251C70.1323 11.2251 69.4265 11.5089 68.859 12.0764C68.306 12.6585 68.0295 13.3788 68.0295 14.2374C68.0295 15.096 68.306 15.8163 68.859 16.3984Z" fill="#03837B"/>
<path d="M88.7491 15.5034L90.6045 8.78036H93.595L90.1243 19.6944H87.4395L85.4313 13.0805L83.4231 19.6944H80.7382L77.2676 8.78036H80.258L82.1134 15.4816L84.0998 8.78036H86.7628L88.7491 15.5034Z" fill="#03837B"/>
<path d="M102.959 10.0682V4.41473H105.775V19.6944H102.959V18.4065C102.13 19.4688 100.951 20 99.4231 20C97.9533 20 96.6946 19.447 95.6468 18.3411C94.6136 17.2206 94.097 15.8527 94.097 14.2374C94.097 12.6367 94.6136 11.276 95.6468 10.1555C96.6946 9.03502 97.9533 8.47476 99.4231 8.47476C100.951 8.47476 102.13 9.00591 102.959 10.0682ZM97.7641 16.4638C98.3608 17.0314 99.0884 17.3151 99.947 17.3151C100.82 17.3151 101.54 17.0314 102.108 16.4638C102.675 15.8818 102.959 15.1396 102.959 14.2374C102.959 13.3352 102.675 12.6003 102.108 12.0327C101.54 11.4507 100.82 11.1596 99.947 11.1596C99.0738 11.1596 98.3462 11.4507 97.7641 12.0327C97.1966 12.6003 96.9129 13.3352 96.9129 14.2374C96.9129 15.1396 97.1966 15.8818 97.7641 16.4638Z" fill="#03837B"/>
<path d="M120.334 4.41473H123.433V19.6944H120.443V9.78445L116.143 16.8786H115.794L111.494 9.80628V19.6944H108.481V4.41473H111.581L115.968 11.6398L120.334 4.41473Z" fill="#03837B"/>
<path d="M127.547 7.47067C127.081 7.47067 126.673 7.30332 126.324 6.96862C125.989 6.61937 125.822 6.21191 125.822 5.74625C125.822 5.28058 125.989 4.87312 126.324 4.52387C126.673 4.17462 127.081 4 127.547 4C128.027 4 128.434 4.17462 128.769 4.52387C129.118 4.87312 129.293 5.28058 129.293 5.74625C129.293 6.21191 129.118 6.61937 128.769 6.96862C128.434 7.30332 128.027 7.47067 127.547 7.47067ZM128.965 19.6944H126.15V8.78036H128.965V19.6944Z" fill="#03837B"/>
<path d="M137.611 8.47476C138.819 8.47476 139.801 8.87494 140.558 9.67531C141.343 10.4902 141.736 11.5962 141.736 12.9932V19.6944H138.921V13.3424C138.921 12.6294 138.724 12.0764 138.331 11.6835C137.953 11.2906 137.429 11.0941 136.76 11.0941C136.017 11.0941 135.428 11.327 134.991 11.7926C134.569 12.2437 134.358 12.9131 134.358 13.8008V19.6944H131.543V8.78036H134.358V10.0027C135.028 8.98408 136.112 8.47476 137.611 8.47476Z" fill="#03837B"/>
<path d="M152.414 10.0682V4.41473H155.229V19.6944H152.414V18.4065C151.584 19.4688 150.405 20 148.877 20C147.408 20 146.149 19.447 145.101 18.3411C144.068 17.2206 143.551 15.8527 143.551 14.2374C143.551 12.6367 144.068 11.276 145.101 10.1555C146.149 9.03502 147.408 8.47476 148.877 8.47476C150.405 8.47476 151.584 9.00591 152.414 10.0682ZM147.218 16.4638C147.815 17.0314 148.543 17.3151 149.401 17.3151C150.274 17.3151 150.995 17.0314 151.562 16.4638C152.13 15.8818 152.414 15.1396 152.414 14.2374C152.414 13.3352 152.13 12.6003 151.562 12.0327C150.995 11.4507 150.274 11.1596 149.401 11.1596C148.528 11.1596 147.801 11.4507 147.218 12.0327C146.651 12.6003 146.367 13.3352 146.367 14.2374C146.367 15.1396 146.651 15.8818 147.218 16.4638Z" fill="#03837B"/>
</svg>
