<svg width="297" height="48" viewBox="0 0 297 48" fill="none" xmlns="http://www.w3.org/2000/svg">
<path fill-rule="evenodd" clip-rule="evenodd" d="M8 0C3.58172 0 0 3.58173 0 8V39.937C0 44.3553 3.58173 47.937 8 47.937H39.937C44.3553 47.937 47.937 44.3553 47.937 39.937V8C47.937 3.58172 44.3553 0 39.937 0H8ZM16.1975 8.58554C16.2824 8.52897 16.3787 8.49123 16.4776 8.47295C16.5766 8.45466 16.6782 8.45551 16.7779 8.47857C16.9787 8.52397 17.1505 8.64969 17.252 8.8248C17.3079 8.92064 18.6074 11.1987 17.8468 13.3468C17.1419 15.3379 14.8069 16.615 14.2162 16.9146C14.0259 17.2491 13.8598 17.5962 13.7177 17.9561C14.6566 17.1765 15.674 16.7274 16.3138 16.4488C16.5411 16.3501 16.8039 16.3704 17.0135 16.5037C17.2224 16.6363 17.3483 16.8639 17.3483 17.1075V17.1085C17.3483 18.2001 17.3483 19.6948 16.3239 21.2256C15.3949 22.6137 13.8417 23.2031 12.9619 23.4394C12.9974 24.2002 13.1012 24.9391 13.2708 25.6533C13.5794 24.9726 14.0616 24.3392 14.7377 23.7674C15.0217 23.5267 15.4468 23.5363 15.7205 23.7871C15.7874 23.8483 17.3483 25.3051 17.3483 27.8503C17.3483 28.9801 16.697 30.0601 15.9949 30.8256C16.022 30.8552 16.0477 30.8862 16.0734 30.9171C16.1048 30.955 16.1362 30.9928 16.1702 31.0282C16.5975 31.4743 17.1814 31.9355 17.8267 32.3962C17.4317 31.2525 17.3547 30.2037 17.3497 30.1247C17.3365 29.9114 17.4186 29.7031 17.5767 29.5561C17.7349 29.4091 17.9531 29.3402 18.1686 29.3633C18.2775 29.3755 20.8306 29.682 22.3452 31.3027C23.5786 32.6219 23.2414 34.6605 22.9817 35.6375C23.3467 35.8755 23.6742 36.1107 23.9687 36.3455C24.263 36.1109 24.5898 35.8753 24.9543 35.6375C24.6949 34.6607 24.3589 32.6219 25.5922 31.3027C27.1069 29.682 29.6607 29.3755 29.7688 29.3633C29.9829 29.3402 30.2012 29.4091 30.3593 29.5561C30.5175 29.7038 30.6017 29.9114 30.5878 30.1247C30.5827 30.2033 30.5073 31.2523 30.1021 32.4033C30.7512 31.9403 31.3379 31.4764 31.7673 31.0282C31.8012 30.9928 31.8326 30.955 31.8641 30.9171C31.8898 30.8862 31.9155 30.8552 31.9426 30.8256C31.2405 30.0595 30.5892 28.9794 30.5892 27.8503C30.5892 25.3051 32.1494 23.8483 32.2156 23.7871C32.4885 23.5363 32.9136 23.526 33.1983 23.7674C33.8747 24.3395 34.3566 24.9737 34.6652 25.6547C34.8351 24.94 34.94 24.2008 34.9755 23.4394C34.0957 23.2031 32.544 22.6137 31.615 21.2256C30.5896 19.6943 30.5892 18.1992 30.5892 17.1075C30.5892 16.8639 30.715 16.6355 30.924 16.5037C31.1329 16.3704 31.3956 16.3507 31.6236 16.4502C32.2641 16.7288 33.2812 17.1779 34.2198 17.9575C34.0775 17.5972 33.9117 17.2495 33.7213 16.9146C33.1306 16.6154 30.7956 15.3379 30.0906 13.3468C29.33 11.1987 30.6296 8.92064 30.6855 8.8248C30.787 8.64969 30.9581 8.52397 31.1581 8.47857C31.356 8.43174 31.5687 8.4724 31.7386 8.58554C31.8717 8.67417 35.0028 10.7988 35.0028 13.7662V16.2109C35.118 16.4133 35.2313 16.6164 35.3304 16.8246C35.9129 14.6777 37.1009 13.7093 37.168 13.6579C37.3306 13.5332 37.5419 13.4811 37.7427 13.5157C37.9472 13.5489 38.1265 13.6637 38.2384 13.8338C38.9622 14.9306 39.6216 16.9082 39.359 18.6542C39.1557 20.0064 38.1227 21.1443 36.4539 21.9025C36.4674 22.2241 36.474 22.5471 36.474 22.8722C36.474 22.8831 36.4733 22.8938 36.4726 22.9045C36.4719 22.9148 36.4712 22.9251 36.4712 22.9356C37.9342 21.8503 39.8889 21.4668 40.0142 21.4437C40.2437 21.4012 40.4871 21.4695 40.6592 21.6295C40.8314 21.7895 40.9136 22.0203 40.8805 22.2502C40.8643 22.3705 40.4509 25.2138 39.2886 26.882C38.4397 28.1005 37.2092 28.4512 36.1867 28.4512C35.853 28.4512 35.559 28.4072 35.2916 28.3499C35.0983 28.7791 34.8838 29.1947 34.648 29.5969C35.1011 29.4543 35.5609 29.3576 36.01 29.3576C37.5172 29.3576 38.9747 30.1337 39.0357 30.1669C39.3682 30.3463 39.5069 30.7423 39.3576 31.0831C39.298 31.2186 37.8663 34.4018 34.954 34.4018C33.2162 34.4018 32.053 33.7224 31.4326 33.2294C30.8899 33.6418 30.3128 34.0402 29.7128 34.4215C32.5321 34.599 33.987 35.9907 34.0517 36.0541C34.2077 36.2069 34.2843 36.4199 34.2629 36.6354C34.2416 36.8494 34.1228 37.0435 33.9397 37.1632C33.8418 37.2266 31.5205 38.7254 29.118 38.7254C27.3538 38.7254 26.3304 37.6181 25.8164 36.8198C25.5463 36.9946 25.2891 37.1655 25.0779 37.318C25.9521 38.1606 26.5148 39.0262 26.8623 39.9076C26.897 39.996 26.9136 40.0902 26.9112 40.1848C26.9088 40.2794 26.8873 40.3727 26.8481 40.4592C26.8089 40.5457 26.7526 40.6238 26.6826 40.689C26.6126 40.7543 26.5301 40.8053 26.4399 40.8393C26.3497 40.8733 26.2536 40.8896 26.157 40.8872C26.0604 40.8848 25.9652 40.8638 25.8769 40.8254C25.7886 40.787 25.7088 40.7319 25.6422 40.6633C25.5757 40.5947 25.5235 40.5139 25.4888 40.4256C25.1929 39.6749 24.7527 38.9867 23.9687 38.2595C23.1848 38.9867 22.7446 39.6749 22.4487 40.4256C22.414 40.5139 22.3618 40.5947 22.2952 40.6633C22.2286 40.7319 22.1489 40.787 22.0606 40.8254C21.8822 40.903 21.6797 40.908 21.4976 40.8393C21.4074 40.8053 21.3249 40.7543 21.2549 40.689C21.1848 40.6238 21.1286 40.5457 21.0894 40.4592C21.0502 40.3727 21.0287 40.2794 21.0263 40.1848C21.0238 40.0902 21.0404 39.996 21.0752 39.9076C21.4226 39.0262 21.9854 38.1606 22.8596 37.318C22.6481 37.1653 22.3901 36.9949 22.1197 36.8198C21.6068 37.6181 20.5836 38.7254 18.8195 38.7254C16.417 38.7254 14.0957 37.2266 13.9978 37.1632C13.8147 37.0435 13.6959 36.8501 13.6746 36.6354C13.6532 36.4199 13.7298 36.2069 13.8858 36.0541C13.9505 35.9907 15.4054 34.599 18.2247 34.4215C17.6247 34.0402 17.0476 33.6418 16.5049 33.2294C15.8843 33.7224 14.7208 34.4018 12.9835 34.4018C10.0712 34.4018 8.63949 31.2186 8.5799 31.0831C8.43058 30.7423 8.56997 30.3463 8.90173 30.1669C8.96279 30.1337 10.4202 29.3576 11.9275 29.3576C12.377 29.3576 12.8374 29.4547 13.2909 29.5983C13.0547 29.1956 12.8394 28.7797 12.6459 28.3499C12.3785 28.4073 12.0853 28.4512 11.7508 28.4512C10.7283 28.4512 9.49776 28.1005 8.64887 26.882C7.48661 25.2138 7.07315 22.3705 7.05697 22.2502C7.02387 22.0203 7.10683 21.7895 7.27822 21.6295C7.44962 21.4695 7.69237 21.4012 7.92188 21.4437C8.04673 21.4669 10.0029 21.8508 11.4663 22.937C11.4662 22.9263 11.4656 22.9158 11.4649 22.9052C11.4641 22.8943 11.4634 22.8834 11.4634 22.8722C11.4634 22.5465 11.4714 22.2232 11.485 21.9011C9.80329 21.1297 8.78253 19.998 8.5799 18.6542C8.31656 16.9089 8.97602 14.9313 9.69912 13.8338C9.81093 13.6637 9.98959 13.5482 10.1934 13.5143C10.3927 13.4797 10.6062 13.5332 10.7695 13.6579C10.8366 13.7093 12.0246 14.6774 12.6071 16.8246C12.7061 16.6164 12.8194 16.4133 12.9346 16.2109V13.7662C12.9346 10.7988 16.065 8.67417 16.1975 8.58554Z" fill="#03837B"/>
<path d="M81.405 36.616C76.7997 36.616 72.9717 35.076 69.921 31.996C66.8997 28.9453 65.389 25.1467 65.389 20.6C65.389 16.024 66.8997 12.2253 69.921 9.204C72.9717 6.124 76.7997 4.584 81.405 4.584C84.1917 4.584 86.7583 5.244 89.105 6.564C91.481 7.85467 93.329 9.61467 94.649 11.844L89.413 14.88C88.6503 13.5013 87.565 12.4307 86.157 11.668C84.749 10.876 83.165 10.48 81.405 10.48C78.413 10.48 75.993 11.4187 74.145 13.296C72.3263 15.2027 71.417 17.6373 71.417 20.6C71.417 23.5333 72.3263 25.9533 74.145 27.86C75.993 29.7373 78.413 30.676 81.405 30.676C83.165 30.676 84.749 30.2947 86.157 29.532C87.5943 28.74 88.6797 27.6693 89.413 26.32L94.649 29.356C93.329 31.5853 91.481 33.36 89.105 34.68C86.7583 35.9707 84.1917 36.616 81.405 36.616ZM104.135 14V17.784C104.633 16.4053 105.484 15.364 106.687 14.66C107.889 13.9267 109.268 13.56 110.823 13.56V19.896C109.092 19.6613 107.537 20.0133 106.159 20.952C104.809 21.8613 104.135 23.372 104.135 25.484V36H98.4588V14H104.135ZM132.07 33.272C129.841 35.5013 127.083 36.616 123.798 36.616C120.513 36.616 117.755 35.5013 115.526 33.272C113.297 31.0427 112.182 28.2853 112.182 25C112.182 21.744 113.297 19.0013 115.526 16.772C117.785 14.5133 120.542 13.384 123.798 13.384C127.054 13.384 129.811 14.5133 132.07 16.772C134.329 19.0307 135.458 21.7733 135.458 25C135.458 28.256 134.329 31.0133 132.07 33.272ZM119.53 29.356C120.674 30.5 122.097 31.072 123.798 31.072C125.499 31.072 126.922 30.5 128.066 29.356C129.21 28.212 129.782 26.76 129.782 25C129.782 23.24 129.21 21.788 128.066 20.644C126.922 19.5 125.499 18.928 123.798 18.928C122.097 18.928 120.674 19.5 119.53 20.644C118.415 21.8173 117.858 23.2693 117.858 25C117.858 26.7307 118.415 28.1827 119.53 29.356ZM159.624 27.552L163.364 14H169.392L162.396 36H156.984L152.936 22.668L148.888 36H143.476L136.48 14H142.508L146.248 27.508L150.252 14H155.62L159.624 27.552ZM188.268 16.596V5.2H193.944V36H188.268V33.404C186.596 35.5453 184.22 36.616 181.14 36.616C178.177 36.616 175.64 35.5013 173.528 33.272C171.445 31.0133 170.404 28.256 170.404 25C170.404 21.7733 171.445 19.0307 173.528 16.772C175.64 14.5133 178.177 13.384 181.14 13.384C184.22 13.384 186.596 14.4547 188.268 16.596ZM177.796 29.488C178.998 30.632 180.465 31.204 182.196 31.204C183.956 31.204 185.408 30.632 186.552 29.488C187.696 28.3147 188.268 26.8187 188.268 25C188.268 23.1813 187.696 21.7 186.552 20.556C185.408 19.3827 183.956 18.796 182.196 18.796C180.436 18.796 178.969 19.3827 177.796 20.556C176.652 21.7 176.08 23.1813 176.08 25C176.08 26.8187 176.652 28.3147 177.796 29.488ZM223.291 5.2H229.539V36H223.511V16.024L214.843 30.324H214.139L205.471 16.068V36H199.399V5.2H205.647L214.491 19.764L223.291 5.2ZM237.829 11.36C236.891 11.36 236.069 11.0227 235.365 10.348C234.691 9.644 234.353 8.82266 234.353 7.884C234.353 6.94533 234.691 6.124 235.365 5.42C236.069 4.716 236.891 4.364 237.829 4.364C238.797 4.364 239.619 4.716 240.293 5.42C240.997 6.124 241.349 6.94533 241.349 7.884C241.349 8.82266 240.997 9.644 240.293 10.348C239.619 11.0227 238.797 11.36 237.829 11.36ZM240.689 36H235.013V14H240.689V36ZM258.117 13.384C260.551 13.384 262.531 14.1907 264.057 15.804C265.641 17.4467 266.433 19.676 266.433 22.492V36H260.757V23.196C260.757 21.7587 260.361 20.644 259.569 19.852C258.806 19.06 257.75 18.664 256.401 18.664C254.905 18.664 253.717 19.1333 252.837 20.072C251.986 20.9813 251.561 22.3307 251.561 24.12V36H245.885V14H251.561V16.464C252.91 14.4107 255.095 13.384 258.117 13.384ZM287.955 16.596V5.2H293.631V36H287.955V33.404C286.283 35.5453 283.907 36.616 280.827 36.616C277.864 36.616 275.327 35.5013 273.215 33.272C271.132 31.0133 270.091 28.256 270.091 25C270.091 21.7733 271.132 19.0307 273.215 16.772C275.327 14.5133 277.864 13.384 280.827 13.384C283.907 13.384 286.283 14.4547 287.955 16.596ZM277.483 29.488C278.686 30.632 280.152 31.204 281.883 31.204C283.643 31.204 285.095 30.632 286.239 29.488C287.383 28.3147 287.955 26.8187 287.955 25C287.955 23.1813 287.383 21.7 286.239 20.556C285.095 19.3827 283.643 18.796 281.883 18.796C280.123 18.796 278.656 19.3827 277.483 20.556C276.339 21.7 275.767 23.1813 275.767 25C275.767 26.8187 276.339 28.3147 277.483 29.488Z" fill="#03837B"/>
</svg>
