<svg width="52" height="28" viewBox="0 0 52 28" fill="none" xmlns="http://www.w3.org/2000/svg">
<g filter="url(#filter0_d_1790_86824)">
<path d="M11.4657 0.5H43.776C46.0804 0.5 47.7559 2.68821 47.1549 4.91278L43.9132 16.9128C43.5008 18.4395 42.1158 19.5 40.5343 19.5H8.22395C5.91964 19.5 4.24412 17.3118 4.84507 15.0872L8.08678 3.08722C8.49921 1.56049 9.8842 0.5 11.4657 0.5Z" fill="url(#paint0_linear_1790_86824)" stroke="url(#paint1_linear_1790_86824)"/>
<path d="M17.8796 5.20548C18.9431 5.20548 19.7888 5.53425 20.4168 6.19178C21.0447 6.84018 21.2777 7.6758 21.1156 8.69863C20.9637 9.66667 20.4927 10.4475 19.7027 11.0411C18.9228 11.6256 17.915 11.9178 16.6794 11.9178H15.2816L14.7195 14.7945H12L13.8687 5.20548H17.8796ZM18.4113 8.56164C18.4822 8.25114 18.4265 8.00457 18.2442 7.82192C18.0619 7.63927 17.7884 7.54794 17.4238 7.54794H16.1324L15.7374 9.58904H17.0592C17.4137 9.58904 17.7125 9.49772 17.9555 9.31507C18.1986 9.12329 18.3506 8.87215 18.4113 8.56164Z" fill="white"/>
<path d="M30.3041 8.65753C30.1826 9.26941 29.9192 9.80365 29.5141 10.2603C29.1191 10.7169 28.6127 11.0685 27.9948 11.3151L29.4533 14.7945H26.7187L25.4728 11.6986H24.3182L23.7105 14.7945H20.991L22.8749 5.20548H27.0377C28.0911 5.20548 28.9469 5.54338 29.6053 6.21918C30.2636 6.89498 30.4966 7.70776 30.3041 8.65753ZM25.1386 7.46575L24.7132 9.61644H26.2781C26.6123 9.62557 26.8959 9.52968 27.1289 9.32877C27.3719 9.12785 27.5239 8.86758 27.5846 8.54795C27.6454 8.22831 27.5846 7.96804 27.4023 7.76712C27.2301 7.56621 26.9617 7.46575 26.5971 7.46575H25.1386Z" fill="white"/>
<path d="M35.5662 15C34.4925 15 33.5556 14.758 32.7555 14.274C31.9553 13.79 31.3882 13.1553 31.0539 12.3699C30.7197 11.5845 30.6386 10.7443 30.8108 9.84931C31.0742 8.47945 31.7882 7.32877 32.953 6.39726C34.1178 5.46575 35.5307 5 37.1918 5C38.8022 5 40.0531 5.51142 40.9444 6.53425C41.8458 7.54795 42.1699 8.74429 41.9167 10.1233C41.6534 11.5114 40.9444 12.6712 39.7897 13.6027C38.6452 14.5342 37.2373 15 35.5662 15ZM33.9253 11.8767C34.3609 12.3607 34.9888 12.6027 35.8092 12.6027C36.6296 12.6027 37.364 12.3607 38.0122 11.8767C38.6705 11.3836 39.0706 10.758 39.2124 10C39.3643 9.24201 39.2175 8.621 38.7718 8.13699C38.3262 7.64384 37.6931 7.39726 36.8727 7.39726C36.0523 7.39726 35.3231 7.64384 34.685 8.13699C34.057 8.621 33.6671 9.24201 33.5151 10C33.3632 10.7671 33.4999 11.3927 33.9253 11.8767Z" fill="white"/>
</g>
<defs>
<filter id="filter0_d_1790_86824" x="-1" y="0" width="54" height="28" filterUnits="userSpaceOnUse" color-interpolation-filters="sRGB">
<feFlood flood-opacity="0" result="BackgroundImageFix"/>
<feColorMatrix in="SourceAlpha" type="matrix" values="0 0 0 0 0 0 0 0 0 0 0 0 0 0 0 0 0 0 127 0" result="hardAlpha"/>
<feOffset dy="4"/>
<feGaussianBlur stdDeviation="2"/>
<feComposite in2="hardAlpha" operator="out"/>
<feColorMatrix type="matrix" values="0 0 0 0 0 0 0 0 0 0 0 0 0 0 0 0 0 0 0.25 0"/>
<feBlend mode="normal" in2="BackgroundImageFix" result="effect1_dropShadow_1790_86824"/>
<feBlend mode="normal" in="SourceGraphic" in2="effect1_dropShadow_1790_86824" result="shape"/>
</filter>
<linearGradient id="paint0_linear_1790_86824" x1="40.4053" y1="-1.48148" x2="6.11206" y2="19.6949" gradientUnits="userSpaceOnUse">
<stop stop-color="#03837B"/>
<stop offset="1" stop-color="#27BBB2"/>
</linearGradient>
<linearGradient id="paint1_linear_1790_86824" x1="-15.589" y1="-16.5625" x2="49.1306" y2="18.1943" gradientUnits="userSpaceOnUse">
<stop stop-color="#03837B"/>
<stop offset="1" stop-color="#24B7AE"/>
</linearGradient>
</defs>
</svg>
